<svg width="450" height="56" viewBox="0 0 450 56" fill="none" xmlns="http://www.w3.org/2000/svg">
<path d="M79.45 45.3C78.1 45.3 76.8417 45.0833 75.675 44.65C74.525 44.2 73.525 43.5667 72.675 42.75C71.825 41.9333 71.1583 40.975 70.675 39.875C70.2083 38.775 69.975 37.5667 69.975 36.25C69.975 34.9333 70.2083 33.725 70.675 32.625C71.1583 31.525 71.825 30.5667 72.675 29.75C73.5417 28.9333 74.55 28.3083 75.7 27.875C76.85 27.425 78.1083 27.2 79.475 27.2C80.9917 27.2 82.3583 27.4667 83.575 28C84.8083 28.5167 85.8417 29.2833 86.675 30.3L84.075 32.7C83.475 32.0167 82.8083 31.5083 82.075 31.175C81.3417 30.825 80.5417 30.65 79.675 30.65C78.8583 30.65 78.1083 30.7833 77.425 31.05C76.7417 31.3167 76.15 31.7 75.65 32.2C75.15 32.7 74.7583 33.2917 74.475 33.975C74.2083 34.6583 74.075 35.4167 74.075 36.25C74.075 37.0833 74.2083 37.8417 74.475 38.525C74.7583 39.2083 75.15 39.8 75.65 40.3C76.15 40.8 76.7417 41.1833 77.425 41.45C78.1083 41.7167 78.8583 41.85 79.675 41.85C80.5417 41.85 81.3417 41.6833 82.075 41.35C82.8083 41 83.475 40.475 84.075 39.775L86.675 42.175C85.8417 43.1917 84.8083 43.9667 83.575 44.5C82.3583 45.0333 80.9833 45.3 79.45 45.3ZM97.31 31.35C98.3766 31.35 99.3266 31.5667 100.16 32C101.01 32.4167 101.677 33.0667 102.16 33.95C102.643 34.8167 102.885 35.9333 102.885 37.3V45H98.985V37.9C98.985 36.8167 98.7433 36.0167 98.26 35.5C97.7933 34.9833 97.1266 34.725 96.26 34.725C95.6433 34.725 95.085 34.8583 94.585 35.125C94.1016 35.375 93.7183 35.7667 93.435 36.3C93.1683 36.8333 93.035 37.5167 93.035 38.35V45H89.135V26.45H93.035V35.275L92.16 34.15C92.6433 33.25 93.335 32.5583 94.235 32.075C95.135 31.5917 96.16 31.35 97.31 31.35ZM112.918 45.2C111.484 45.2 110.209 44.9 109.093 44.3C107.993 43.7 107.118 42.8833 106.468 41.85C105.834 40.8 105.518 39.6083 105.518 38.275C105.518 36.925 105.834 35.7333 106.468 34.7C107.118 33.65 107.993 32.8333 109.093 32.25C110.209 31.65 111.484 31.35 112.918 31.35C114.334 31.35 115.601 31.65 116.718 32.25C117.834 32.8333 118.709 33.6417 119.343 34.675C119.976 35.7083 120.293 36.9083 120.293 38.275C120.293 39.6083 119.976 40.8 119.343 41.85C118.709 42.8833 117.834 43.7 116.718 44.3C115.601 44.9 114.334 45.2 112.918 45.2ZM112.918 42C113.568 42 114.151 41.85 114.668 41.55C115.184 41.25 115.593 40.825 115.893 40.275C116.193 39.7083 116.343 39.0417 116.343 38.275C116.343 37.4917 116.193 36.825 115.893 36.275C115.593 35.725 115.184 35.3 114.668 35C114.151 34.7 113.568 34.55 112.918 34.55C112.268 34.55 111.684 34.7 111.168 35C110.651 35.3 110.234 35.725 109.918 36.275C109.618 36.825 109.468 37.4917 109.468 38.275C109.468 39.0417 109.618 39.7083 109.918 40.275C110.234 40.825 110.651 41.25 111.168 41.55C111.684 41.85 112.268 42 112.918 42ZM127.425 45.2C126.275 45.2 125.166 45.0667 124.1 44.8C123.05 44.5167 122.216 44.1667 121.6 43.75L122.9 40.95C123.516 41.3333 124.241 41.65 125.075 41.9C125.925 42.1333 126.758 42.25 127.575 42.25C128.475 42.25 129.108 42.1417 129.475 41.925C129.858 41.7083 130.05 41.4083 130.05 41.025C130.05 40.7083 129.9 40.475 129.6 40.325C129.316 40.1583 128.933 40.0333 128.45 39.95C127.966 39.8667 127.433 39.7833 126.85 39.7C126.283 39.6167 125.708 39.5083 125.125 39.375C124.541 39.225 124.008 39.0083 123.525 38.725C123.041 38.4417 122.65 38.0583 122.35 37.575C122.066 37.0917 121.925 36.4667 121.925 35.7C121.925 34.85 122.166 34.1 122.65 33.45C123.15 32.8 123.866 32.2917 124.8 31.925C125.733 31.5417 126.85 31.35 128.15 31.35C129.066 31.35 130 31.45 130.95 31.65C131.9 31.85 132.691 32.1417 133.325 32.525L132.025 35.3C131.375 34.9167 130.716 34.6583 130.05 34.525C129.4 34.375 128.766 34.3 128.15 34.3C127.283 34.3 126.65 34.4167 126.25 34.65C125.85 34.8833 125.65 35.1833 125.65 35.55C125.65 35.8833 125.791 36.1333 126.075 36.3C126.375 36.4667 126.766 36.6 127.25 36.7C127.733 36.8 128.258 36.8917 128.825 36.975C129.408 37.0417 129.991 37.15 130.575 37.3C131.158 37.45 131.683 37.6667 132.15 37.95C132.633 38.2167 133.025 38.5917 133.325 39.075C133.625 39.5417 133.775 40.1583 133.775 40.925C133.775 41.7583 133.525 42.5 133.025 43.15C132.525 43.7833 131.8 44.2833 130.85 44.65C129.916 45.0167 128.775 45.2 127.425 45.2ZM144.131 45.2C142.948 45.2 141.931 44.95 141.081 44.45C140.231 43.95 139.581 43.1917 139.131 42.175C138.681 41.1417 138.456 39.8417 138.456 38.275C138.456 36.6917 138.689 35.3917 139.156 34.375C139.639 33.3583 140.306 32.6 141.156 32.1C142.006 31.6 142.998 31.35 144.131 31.35C145.398 31.35 146.531 31.6333 147.531 32.2C148.548 32.7667 149.348 33.5667 149.931 34.6C150.531 35.6333 150.831 36.8583 150.831 38.275C150.831 39.675 150.531 40.8917 149.931 41.925C149.348 42.9583 148.548 43.7667 147.531 44.35C146.531 44.9167 145.398 45.2 144.131 45.2ZM136.181 45V26.45H140.081V34.275L139.831 38.25L139.906 42.25V45H136.181ZM143.456 42C144.106 42 144.681 41.85 145.181 41.55C145.698 41.25 146.106 40.825 146.406 40.275C146.723 39.7083 146.881 39.0417 146.881 38.275C146.881 37.4917 146.723 36.825 146.406 36.275C146.106 35.725 145.698 35.3 145.181 35C144.681 34.7 144.106 34.55 143.456 34.55C142.806 34.55 142.223 34.7 141.706 35C141.189 35.3 140.781 35.725 140.481 36.275C140.181 36.825 140.031 37.4917 140.031 38.275C140.031 39.0417 140.181 39.7083 140.481 40.275C140.781 40.825 141.189 41.25 141.706 41.55C142.223 41.85 142.806 42 143.456 42ZM154.775 50.05C154.075 50.05 153.384 49.9417 152.7 49.725C152.017 49.5083 151.459 49.2083 151.025 48.825L152.45 46.05C152.75 46.3167 153.092 46.525 153.475 46.675C153.875 46.825 154.267 46.9 154.65 46.9C155.2 46.9 155.634 46.7667 155.95 46.5C156.284 46.25 156.584 45.825 156.85 45.225L157.55 43.575L157.85 43.15L162.675 31.55H166.425L160.35 45.825C159.917 46.9083 159.417 47.7583 158.85 48.375C158.3 48.9917 157.684 49.425 157 49.675C156.334 49.925 155.592 50.05 154.775 50.05ZM157.075 45.525L151.075 31.55H155.1L159.75 42.8L157.075 45.525ZM173.297 39.175V36.75H185.797V39.175H173.297ZM195.202 45V31.75H201.352C202.902 31.75 204.119 32.05 205.002 32.65C205.902 33.2333 206.352 34.0667 206.352 35.15C206.352 36.2333 205.927 37.075 205.077 37.675C204.244 38.2583 203.135 38.55 201.752 38.55L202.127 37.9C203.71 37.9 204.885 38.1917 205.652 38.775C206.419 39.3583 206.802 40.2167 206.802 41.35C206.802 42.5 206.369 43.4 205.502 44.05C204.652 44.6833 203.344 45 201.577 45H195.202ZM197.552 43.15H201.402C202.402 43.15 203.152 43 203.652 42.7C204.152 42.3833 204.402 41.8833 204.402 41.2C204.402 40.5 204.169 39.9917 203.702 39.675C203.252 39.3417 202.535 39.175 201.552 39.175H197.552V43.15ZM197.552 37.45H201.152C202.069 37.45 202.76 37.2833 203.227 36.95C203.71 36.6 203.952 36.1167 203.952 35.5C203.952 34.8667 203.71 34.3917 203.227 34.075C202.76 33.7583 202.069 33.6 201.152 33.6H197.552V37.45ZM223.658 45V31.75H226.058V45H223.658ZM216.533 36.25C218.217 36.2667 219.492 36.65 220.358 37.4C221.242 38.15 221.683 39.2083 221.683 40.575C221.683 42.0083 221.2 43.1167 220.233 43.9C219.283 44.6667 217.917 45.0417 216.133 45.025L210.558 45V31.75H212.958V36.225L216.533 36.25ZM215.958 43.2C217.025 43.2167 217.842 43 218.408 42.55C218.975 42.1 219.258 41.4333 219.258 40.55C219.258 39.6833 218.975 39.05 218.408 38.65C217.858 38.25 217.042 38.0417 215.958 38.025L212.958 37.975V43.175L215.958 43.2ZM236.849 45.2C235.749 45.2 234.774 45.025 233.924 44.675C233.091 44.325 232.374 43.8083 231.774 43.125C231.174 42.425 230.716 41.55 230.399 40.5C230.099 39.4333 229.949 38.1833 229.949 36.75C229.949 35.6167 230.049 34.6 230.249 33.7C230.449 32.8 230.733 32 231.099 31.3C231.483 30.6 231.949 29.9917 232.499 29.475C233.066 28.9583 233.699 28.5333 234.399 28.2C235.116 27.85 235.899 27.5833 236.749 27.4L242.799 26.05L243.149 28.275L237.574 29.475C237.241 29.5417 236.841 29.6417 236.374 29.775C235.908 29.9083 235.433 30.1167 234.949 30.4C234.466 30.6667 234.016 31.0417 233.599 31.525C233.183 32.0083 232.849 32.6417 232.599 33.425C232.349 34.1917 232.224 35.1417 232.224 36.275C232.224 36.5917 232.233 36.8333 232.249 37C232.266 37.1667 232.283 37.3333 232.299 37.5C232.333 37.6667 232.358 37.9167 232.374 38.25L231.374 37.225C231.641 36.3083 232.066 35.5083 232.649 34.825C233.233 34.1417 233.933 33.6167 234.749 33.25C235.583 32.8667 236.491 32.675 237.474 32.675C238.708 32.675 239.799 32.9417 240.749 33.475C241.716 34.0083 242.474 34.7417 243.024 35.675C243.574 36.6083 243.849 37.675 243.849 38.875C243.849 40.0917 243.558 41.1833 242.974 42.15C242.408 43.1 241.599 43.85 240.549 44.4C239.499 44.9333 238.266 45.2 236.849 45.2ZM237.074 43.2C237.924 43.2 238.674 43.0167 239.324 42.65C239.974 42.2667 240.483 41.7583 240.849 41.125C241.216 40.475 241.399 39.75 241.399 38.95C241.399 38.15 241.216 37.4417 240.849 36.825C240.483 36.2083 239.974 35.725 239.324 35.375C238.674 35.0083 237.908 34.825 237.024 34.825C236.191 34.825 235.441 35 234.774 35.35C234.108 35.6833 233.591 36.1583 233.224 36.775C232.858 37.375 232.674 38.075 232.674 38.875C232.674 39.675 232.858 40.4083 233.224 41.075C233.608 41.725 234.124 42.2417 234.774 42.625C235.441 43.0083 236.208 43.2 237.074 43.2ZM253.177 45.15C251.76 45.15 250.51 44.8583 249.427 44.275C248.36 43.6917 247.527 42.8917 246.927 41.875C246.344 40.8583 246.052 39.6917 246.052 38.375C246.052 37.0583 246.335 35.8917 246.902 34.875C247.485 33.8583 248.277 33.0667 249.277 32.5C250.294 31.9167 251.435 31.625 252.702 31.625C253.985 31.625 255.119 31.9083 256.102 32.475C257.085 33.0417 257.852 33.8417 258.402 34.875C258.969 35.8917 259.252 37.0833 259.252 38.45C259.252 38.55 259.244 38.6667 259.227 38.8C259.227 38.9333 259.219 39.0583 259.202 39.175H247.927V37.45H257.952L256.977 38.05C256.994 37.2 256.819 36.4417 256.452 35.775C256.085 35.1083 255.577 34.5917 254.927 34.225C254.294 33.8417 253.552 33.65 252.702 33.65C251.869 33.65 251.127 33.8417 250.477 34.225C249.827 34.5917 249.319 35.1167 248.952 35.8C248.585 36.4667 248.402 37.2333 248.402 38.1V38.5C248.402 39.3833 248.602 40.175 249.002 40.875C249.419 41.5583 249.994 42.0917 250.727 42.475C251.46 42.8583 252.302 43.05 253.252 43.05C254.035 43.05 254.744 42.9167 255.377 42.65C256.027 42.3833 256.594 41.9833 257.077 41.45L258.402 43C257.802 43.7 257.052 44.2333 256.152 44.6C255.269 44.9667 254.277 45.15 253.177 45.15ZM270 45.15C268.9 45.15 267.892 44.9 266.975 44.4C266.075 43.8833 265.35 43.125 264.8 42.125C264.267 41.125 264 39.875 264 38.375C264 36.875 264.259 35.625 264.775 34.625C265.309 33.625 266.025 32.875 266.925 32.375C267.842 31.875 268.867 31.625 270 31.625C271.3 31.625 272.45 31.9083 273.45 32.475C274.45 33.0417 275.242 33.8333 275.825 34.85C276.409 35.85 276.7 37.025 276.7 38.375C276.7 39.725 276.409 40.9083 275.825 41.925C275.242 42.9417 274.45 43.7333 273.45 44.3C272.45 44.8667 271.3 45.15 270 45.15ZM262.975 49.85V31.75H265.275V35.325L265.125 38.4L265.375 41.475V49.85H262.975ZM269.8 43.05C270.65 43.05 271.409 42.8583 272.075 42.475C272.759 42.0917 273.292 41.55 273.675 40.85C274.075 40.1333 274.275 39.3083 274.275 38.375C274.275 37.425 274.075 36.6083 273.675 35.925C273.292 35.225 272.759 34.6833 272.075 34.3C271.409 33.9167 270.65 33.725 269.8 33.725C268.967 33.725 268.209 33.9167 267.525 34.3C266.859 34.6833 266.325 35.225 265.925 35.925C265.542 36.6083 265.35 37.425 265.35 38.375C265.35 39.3083 265.542 40.1333 265.925 40.85C266.325 41.55 266.859 42.0917 267.525 42.475C268.209 42.8583 268.967 43.05 269.8 43.05ZM280.187 45V31.75H282.587V41.4L290.712 31.75H292.887V45H290.487V35.35L282.387 45H280.187ZM310.035 45.15C308.685 45.15 307.476 44.8583 306.41 44.275C305.36 43.6917 304.535 42.8917 303.935 41.875C303.335 40.8583 303.035 39.6917 303.035 38.375C303.035 37.0583 303.335 35.8917 303.935 34.875C304.535 33.8583 305.36 33.0667 306.41 32.5C307.476 31.9167 308.685 31.625 310.035 31.625C311.235 31.625 312.301 31.8667 313.235 32.35C314.185 32.8167 314.918 33.5167 315.435 34.45L313.61 35.625C313.176 34.975 312.643 34.5 312.01 34.2C311.393 33.8833 310.726 33.725 310.01 33.725C309.143 33.725 308.368 33.9167 307.685 34.3C307.001 34.6833 306.46 35.225 306.06 35.925C305.66 36.6083 305.46 37.425 305.46 38.375C305.46 39.325 305.66 40.15 306.06 40.85C306.46 41.55 307.001 42.0917 307.685 42.475C308.368 42.8583 309.143 43.05 310.01 43.05C310.726 43.05 311.393 42.9 312.01 42.6C312.643 42.2833 313.176 41.8 313.61 41.15L315.435 42.3C314.918 43.2167 314.185 43.925 313.235 44.425C312.301 44.9083 311.235 45.15 310.035 45.15ZM318.542 45V31.75H324.692C326.242 31.75 327.458 32.05 328.342 32.65C329.242 33.2333 329.692 34.0667 329.692 35.15C329.692 36.2333 329.267 37.075 328.417 37.675C327.583 38.2583 326.475 38.55 325.092 38.55L325.467 37.9C327.05 37.9 328.225 38.1917 328.992 38.775C329.758 39.3583 330.142 40.2167 330.142 41.35C330.142 42.5 329.708 43.4 328.842 44.05C327.992 44.6833 326.683 45 324.917 45H318.542ZM320.892 43.15H324.742C325.742 43.15 326.492 43 326.992 42.7C327.492 42.3833 327.742 41.8833 327.742 41.2C327.742 40.5 327.508 39.9917 327.042 39.675C326.592 39.3417 325.875 39.175 324.892 39.175H320.892V43.15ZM320.892 37.45H324.492C325.408 37.45 326.1 37.2833 326.567 36.95C327.05 36.6 327.292 36.1167 327.292 35.5C327.292 34.8667 327.05 34.3917 326.567 34.075C326.1 33.7583 325.408 33.6 324.492 33.6H320.892V37.45ZM339.573 45.15C338.24 45.15 337.057 44.8583 336.023 44.275C334.99 43.6917 334.173 42.8917 333.573 41.875C332.973 40.8417 332.673 39.675 332.673 38.375C332.673 37.0583 332.973 35.8917 333.573 34.875C334.173 33.8583 334.99 33.0667 336.023 32.5C337.057 31.9167 338.24 31.625 339.573 31.625C340.89 31.625 342.065 31.9167 343.098 32.5C344.148 33.0667 344.965 33.8583 345.548 34.875C346.148 35.875 346.448 37.0417 346.448 38.375C346.448 39.6917 346.148 40.8583 345.548 41.875C344.965 42.8917 344.148 43.6917 343.098 44.275C342.065 44.8583 340.89 45.15 339.573 45.15ZM339.573 43.05C340.423 43.05 341.182 42.8583 341.848 42.475C342.532 42.0917 343.065 41.55 343.448 40.85C343.832 40.1333 344.023 39.3083 344.023 38.375C344.023 37.425 343.832 36.6083 343.448 35.925C343.065 35.225 342.532 34.6833 341.848 34.3C341.182 33.9167 340.423 33.725 339.573 33.725C338.723 33.725 337.965 33.9167 337.298 34.3C336.632 34.6833 336.098 35.225 335.698 35.925C335.298 36.6083 335.098 37.425 335.098 38.375C335.098 39.3083 335.298 40.1333 335.698 40.85C336.098 41.55 336.632 42.0917 337.298 42.475C337.965 42.8583 338.723 43.05 339.573 43.05ZM355.814 45.15C354.397 45.15 353.147 44.8583 352.064 44.275C350.997 43.6917 350.164 42.8917 349.564 41.875C348.981 40.8583 348.689 39.6917 348.689 38.375C348.689 37.0583 348.972 35.8917 349.539 34.875C350.122 33.8583 350.914 33.0667 351.914 32.5C352.931 31.9167 354.072 31.625 355.339 31.625C356.622 31.625 357.756 31.9083 358.739 32.475C359.722 33.0417 360.489 33.8417 361.039 34.875C361.606 35.8917 361.889 37.0833 361.889 38.45C361.889 38.55 361.881 38.6667 361.864 38.8C361.864 38.9333 361.856 39.0583 361.839 39.175H350.564V37.45H360.589L359.614 38.05C359.631 37.2 359.456 36.4417 359.089 35.775C358.722 35.1083 358.214 34.5917 357.564 34.225C356.931 33.8417 356.189 33.65 355.339 33.65C354.506 33.65 353.764 33.8417 353.114 34.225C352.464 34.5917 351.956 35.1167 351.589 35.8C351.222 36.4667 351.039 37.2333 351.039 38.1V38.5C351.039 39.3833 351.239 40.175 351.639 40.875C352.056 41.5583 352.631 42.0917 353.364 42.475C354.097 42.8583 354.939 43.05 355.889 43.05C356.672 43.05 357.381 42.9167 358.014 42.65C358.664 42.3833 359.231 41.9833 359.714 41.45L361.039 43C360.439 43.7 359.689 44.2333 358.789 44.6C357.906 44.9667 356.914 45.15 355.814 45.15ZM357.639 29.4C357.289 29.4 356.989 29.2833 356.739 29.05C356.489 28.8 356.364 28.4917 356.364 28.125C356.364 27.7417 356.489 27.4333 356.739 27.2C356.989 26.95 357.289 26.825 357.639 26.825C357.989 26.825 358.289 26.95 358.539 27.2C358.789 27.4333 358.914 27.7417 358.914 28.125C358.914 28.4917 358.789 28.8 358.539 29.05C358.289 29.2833 357.989 29.4 357.639 29.4ZM352.989 29.4C352.639 29.4 352.339 29.2833 352.089 29.05C351.839 28.8 351.714 28.4917 351.714 28.125C351.714 27.7417 351.839 27.4333 352.089 27.2C352.339 26.95 352.639 26.825 352.989 26.825C353.339 26.825 353.639 26.95 353.889 27.2C354.139 27.4333 354.264 27.7417 354.264 28.125C354.264 28.4917 354.139 28.8 353.889 29.05C353.639 29.2833 353.339 29.4 352.989 29.4ZM370.226 45L375.926 37.6L375.901 38.825L370.476 31.75H373.151L377.301 37.2H376.276L380.426 31.75H383.051L377.551 38.875L377.576 37.6L383.326 45H380.601L376.226 39.2L377.201 39.35L372.901 45H370.226ZM391.087 45.15C389.754 45.15 388.57 44.8583 387.537 44.275C386.504 43.6917 385.687 42.8917 385.087 41.875C384.487 40.8417 384.187 39.675 384.187 38.375C384.187 37.0583 384.487 35.8917 385.087 34.875C385.687 33.8583 386.504 33.0667 387.537 32.5C388.57 31.9167 389.754 31.625 391.087 31.625C392.404 31.625 393.579 31.9167 394.612 32.5C395.662 33.0667 396.479 33.8583 397.062 34.875C397.662 35.875 397.962 37.0417 397.962 38.375C397.962 39.6917 397.662 40.8583 397.062 41.875C396.479 42.8917 395.662 43.6917 394.612 44.275C393.579 44.8583 392.404 45.15 391.087 45.15ZM391.087 43.05C391.937 43.05 392.695 42.8583 393.362 42.475C394.045 42.0917 394.579 41.55 394.962 40.85C395.345 40.1333 395.537 39.3083 395.537 38.375C395.537 37.425 395.345 36.6083 394.962 35.925C394.579 35.225 394.045 34.6833 393.362 34.3C392.695 33.9167 391.937 33.725 391.087 33.725C390.237 33.725 389.479 33.9167 388.812 34.3C388.145 34.6833 387.612 35.225 387.212 35.925C386.812 36.6083 386.612 37.425 386.612 38.375C386.612 39.3083 386.812 40.1333 387.212 40.85C387.612 41.55 388.145 42.0917 388.812 42.475C389.479 42.8583 390.237 43.05 391.087 43.05ZM407.553 45.2C406.453 45.2 405.478 45.025 404.628 44.675C403.794 44.325 403.078 43.8083 402.478 43.125C401.878 42.425 401.419 41.55 401.103 40.5C400.803 39.4333 400.653 38.1833 400.653 36.75C400.653 35.6167 400.753 34.6 400.953 33.7C401.153 32.8 401.436 32 401.803 31.3C402.186 30.6 402.653 29.9917 403.203 29.475C403.769 28.9583 404.403 28.5333 405.103 28.2C405.819 27.85 406.603 27.5833 407.453 27.4L413.503 26.05L413.853 28.275L408.278 29.475C407.944 29.5417 407.544 29.6417 407.078 29.775C406.611 29.9083 406.136 30.1167 405.653 30.4C405.169 30.6667 404.719 31.0417 404.303 31.525C403.886 32.0083 403.553 32.6417 403.303 33.425C403.053 34.1917 402.928 35.1417 402.928 36.275C402.928 36.5917 402.936 36.8333 402.953 37C402.969 37.1667 402.986 37.3333 403.003 37.5C403.036 37.6667 403.061 37.9167 403.078 38.25L402.078 37.225C402.344 36.3083 402.769 35.5083 403.353 34.825C403.936 34.1417 404.636 33.6167 405.453 33.25C406.286 32.8667 407.194 32.675 408.178 32.675C409.411 32.675 410.503 32.9417 411.453 33.475C412.419 34.0083 413.178 34.7417 413.728 35.675C414.278 36.6083 414.553 37.675 414.553 38.875C414.553 40.0917 414.261 41.1833 413.678 42.15C413.111 43.1 412.303 43.85 411.253 44.4C410.203 44.9333 408.969 45.2 407.553 45.2ZM407.778 43.2C408.628 43.2 409.378 43.0167 410.028 42.65C410.678 42.2667 411.186 41.7583 411.553 41.125C411.919 40.475 412.103 39.75 412.103 38.95C412.103 38.15 411.919 37.4417 411.553 36.825C411.186 36.2083 410.678 35.725 410.028 35.375C409.378 35.0083 408.611 34.825 407.728 34.825C406.894 34.825 406.144 35 405.478 35.35C404.811 35.6833 404.294 36.1583 403.928 36.775C403.561 37.375 403.378 38.075 403.378 38.875C403.378 39.675 403.561 40.4083 403.928 41.075C404.311 41.725 404.828 42.2417 405.478 42.625C406.144 43.0083 406.911 43.2 407.778 43.2ZM424.105 45.2C423.005 45.2 422.03 45.025 421.18 44.675C420.347 44.325 419.63 43.8083 419.03 43.125C418.43 42.425 417.972 41.55 417.655 40.5C417.355 39.4333 417.205 38.1833 417.205 36.75C417.205 35.6167 417.305 34.6 417.505 33.7C417.705 32.8 417.989 32 418.355 31.3C418.739 30.6 419.205 29.9917 419.755 29.475C420.322 28.9583 420.955 28.5333 421.655 28.2C422.372 27.85 423.155 27.5833 424.005 27.4L430.055 26.05L430.405 28.275L424.83 29.475C424.497 29.5417 424.097 29.6417 423.63 29.775C423.164 29.9083 422.689 30.1167 422.205 30.4C421.722 30.6667 421.272 31.0417 420.855 31.525C420.439 32.0083 420.105 32.6417 419.855 33.425C419.605 34.1917 419.48 35.1417 419.48 36.275C419.48 36.5917 419.489 36.8333 419.505 37C419.522 37.1667 419.539 37.3333 419.555 37.5C419.589 37.6667 419.614 37.9167 419.63 38.25L418.63 37.225C418.897 36.3083 419.322 35.5083 419.905 34.825C420.489 34.1417 421.189 33.6167 422.005 33.25C422.839 32.8667 423.747 32.675 424.73 32.675C425.964 32.675 427.055 32.9417 428.005 33.475C428.972 34.0083 429.73 34.7417 430.28 35.675C430.83 36.6083 431.105 37.675 431.105 38.875C431.105 40.0917 430.814 41.1833 430.23 42.15C429.664 43.1 428.855 43.85 427.805 44.4C426.755 44.9333 425.522 45.2 424.105 45.2ZM424.33 43.2C425.18 43.2 425.93 43.0167 426.58 42.65C427.23 42.2667 427.739 41.7583 428.105 41.125C428.472 40.475 428.655 39.75 428.655 38.95C428.655 38.15 428.472 37.4417 428.105 36.825C427.739 36.2083 427.23 35.725 426.58 35.375C425.93 35.0083 425.164 34.825 424.28 34.825C423.447 34.825 422.697 35 422.03 35.35C421.364 35.6833 420.847 36.1583 420.48 36.775C420.114 37.375 419.93 38.075 419.93 38.875C419.93 39.675 420.114 40.4083 420.48 41.075C420.864 41.725 421.38 42.2417 422.03 42.625C422.697 43.0083 423.464 43.2 424.33 43.2ZM434.533 45V31.75H436.933V41.4L445.058 31.75H447.233V45H444.833V35.35L436.733 45H434.533Z" fill="black"/>
<path d="M56.6326 28C56.6326 43.464 44.0965 56 28.6326 56C13.1686 56 0.632568 43.464 0.632568 28C0.632568 12.536 13.1686 0 28.6326 0C44.0965 0 56.6326 12.536 56.6326 28Z" fill="#F4BF37"/>
<path d="M44.3456 24.216L41.6762 23.6936C42.0541 22.8866 42.4104 22.0638 42.7452 21.2252C43.0831 20.3969 43.3893 19.556 43.6638 18.7024C42.9879 18.2064 42.2979 17.6644 41.594 17.0766C40.8869 16.4785 40.2202 15.8848 39.5938 15.2955C38.9675 14.7062 38.4411 14.17 38.0145 13.687L40.1352 11.8674C40.4685 12.3009 40.8653 12.7596 41.3256 13.2435C41.796 13.7243 42.2951 14.2075 42.8228 14.6931C43.3607 15.1756 43.901 15.6295 44.4437 16.0547C44.9996 13.9328 45.3695 11.8956 45.5534 9.94324L48.4021 10.1766C48.2113 11.1941 47.9795 12.2967 47.7068 13.4844C47.4412 14.6587 47.1359 15.8674 46.791 17.1106C46.4531 18.3404 46.0784 19.5592 45.6669 20.767C45.2585 21.985 44.818 23.1346 44.3456 24.216Z" fill="#0DAE4E"/>
<path d="M10.7409 23.0589C10.8777 22.195 11.0404 21.2704 11.2288 20.2851C11.4173 19.2997 11.6188 18.3003 11.8333 17.2867C12.0479 16.2731 12.2591 15.2806 12.4669 14.3092C12.6853 13.3394 12.8945 12.4276 13.0946 11.5737C13.2963 10.7092 13.4716 9.94324 13.6205 9.27565L16.2546 9.72525C16.0963 10.3158 15.9263 10.98 15.7446 11.718C15.5735 12.4577 15.3948 13.2447 15.2087 14.0792C15.5342 14.0012 15.8758 13.9581 16.2335 13.95C16.6034 13.9329 16.9938 13.957 17.4046 14.0221C17.963 14.1105 18.48 14.2896 18.9557 14.5593C19.4435 14.8202 19.8629 15.1728 20.2137 15.6171C20.5645 16.0615 20.8082 16.6023 20.9449 17.2395C21.0921 17.8784 21.099 18.6192 20.9655 19.4621C20.8236 20.3576 20.5746 21.1119 20.2183 21.725C19.862 22.3382 19.4345 22.8213 18.9358 23.1743C18.4371 23.5273 17.898 23.7605 17.3184 23.8739C16.7477 23.9995 16.1779 24.0172 15.609 23.9271C15.1771 23.8587 14.7807 23.7365 14.4197 23.5605C14.0694 23.3863 13.7511 23.1793 13.4651 22.9396C13.4384 23.1081 13.4117 23.2767 13.385 23.4453L10.7409 23.0589ZM16.6207 16.6194C15.8305 16.4942 15.1512 16.6242 14.5826 17.0094C14.3869 17.9719 14.1999 18.9143 14.0214 19.8364C14.4292 20.6029 15.0966 21.0596 16.0237 21.2065C16.3293 21.2549 16.6456 21.2348 16.9729 21.1462C17.3123 21.0488 17.6149 20.8429 17.8806 20.5286C18.1464 20.2143 18.3285 19.7464 18.427 19.1248C18.5388 18.4189 18.4395 17.8524 18.1292 17.4253C17.8294 16.9998 17.3265 16.7312 16.6207 16.6194Z" fill="#4252E2"/>
<path d="M17.0489 41.5437C16.1516 42.2447 15.2169 42.6553 14.2446 42.7752C13.2782 42.9026 12.3361 42.7504 11.4183 42.3185C10.5005 41.8867 9.6624 41.1853 8.9039 40.2145C8.61659 39.8467 8.34181 39.4041 8.07955 38.8865C7.8189 38.3558 7.61628 37.7857 7.4717 37.1761C7.32137 36.5593 7.27252 35.9282 7.32513 35.2831C7.37775 34.6379 7.56506 34.0059 7.88705 33.3872C8.2033 32.7611 8.69974 32.1837 9.37638 31.6551C9.95741 31.2012 10.5223 30.8782 11.0712 30.6863C11.6143 30.487 12.1302 30.3741 12.6188 30.3477C13.1017 30.3139 13.5381 30.3342 13.9279 30.4087C14.325 30.4774 14.6637 30.5622 14.9439 30.6631C15.2183 30.7566 15.4194 30.8246 15.5472 30.8668L14.9043 33.3412C14.5069 33.1661 14.0858 33.0213 13.6411 32.9068C13.1906 32.785 12.7289 32.7549 12.2558 32.8165C11.7828 32.8781 11.3073 33.0957 10.8292 33.4692C10.3365 33.8542 10.0145 34.2834 9.86325 34.7569C9.71203 35.2304 9.67296 35.711 9.74606 36.1987C9.82652 36.6807 9.97937 37.1416 10.2046 37.5815C10.4241 38.0141 10.6603 38.3922 10.9131 38.7158C11.1832 39.0614 11.4872 39.3747 11.825 39.6556C12.1629 39.9364 12.5293 40.1476 12.9242 40.2892C13.3264 40.425 13.7443 40.4597 14.1781 40.3933C14.6134 40.3138 15.0627 40.093 15.5261 39.731C16.0409 39.3288 16.3883 38.9093 16.5682 38.4726C16.7555 38.0301 16.8302 37.5572 16.7923 37.0539C16.7486 36.5432 16.6471 35.9888 16.4878 35.3908L18.9349 34.7936C19.1342 35.7157 19.2241 36.5812 19.2046 37.39C19.1851 38.1988 19.0066 38.9482 18.6692 39.6382C18.3318 40.3282 17.7917 40.9633 17.0489 41.5437Z" fill="#F33838"/>
<ellipse cx="29.7215" cy="13.0667" rx="5.13333" ry="5.6" fill="#FCFCFC"/>
<path d="M28.6326 20.6001C28.6326 20.0478 29.0803 19.6001 29.6326 19.6001H29.8103C30.3626 19.6001 30.8103 20.0478 30.8103 20.6001V34.8445H28.6326V20.6001Z" fill="#FCFCFC"/>
<path d="M29.4099 33.6628L30.5921 34.6605L18.4684 44.2025C18.1328 44.4667 17.596 44.4576 17.2695 44.182C16.9431 43.9065 16.9506 43.469 17.2863 43.2048L29.4099 33.6628Z" fill="#FCFCFC"/>
<path d="M28.9316 32.8179L30.6022 32.5532L33.7831 45.8905C33.8914 46.3448 33.6053 46.7724 33.144 46.8455C32.6827 46.9186 32.2209 46.6095 32.1125 46.1552L28.9316 32.8179Z" fill="#FCFCFC"/>
<path d="M29.3652 21.3085L30.3337 22.2582L22.3886 28.5746C21.8022 29.0408 20.8932 28.9935 20.3583 28.469L29.3652 21.3085Z" fill="#FCFCFC"/>
<path d="M30.0947 21.308L29.1262 22.2577L37.0714 28.5741C37.6578 29.0403 38.5668 28.993 39.1017 28.4685L30.0947 21.308Z" fill="#FCFCFC"/>
<path d="M22.0503 28.3882L21.965 28.741C21.8747 29.114 21.4519 29.3318 21.0888 29.1923L14.8055 26.7795C14.6069 26.7033 14.5187 26.4851 14.6087 26.2923C14.6957 26.1056 14.9187 26.01 15.1147 26.0754L22.0503 28.3882Z" fill="#FCFCFC"/>
<path d="M37.4238 28.3882L37.5091 28.741C37.5994 29.114 38.0222 29.3318 38.3853 29.1923L44.6686 26.7795C44.8673 26.7033 44.9554 26.4851 44.8655 26.2923C44.7784 26.1056 44.5554 26.01 44.3594 26.0754L37.4238 28.3882Z" fill="#FCFCFC"/>
</svg>
