<svg width="57" height="56" viewBox="0 0 57 56" fill="none" xmlns="http://www.w3.org/2000/svg">
<path d="M56.5744 28C56.5744 43.464 44.0514 56 28.6035 56C13.1556 56 0.63266 43.464 0.63266 28C0.63266 12.536 13.1556 0 28.6035 0C44.0514 0 56.5744 12.536 56.5744 28Z" fill="#F4BF37"/>
<path d="M44.3038 24.217L41.635 23.6952C42.013 22.8879 42.3695 22.0648 42.7044 21.2261C43.0425 20.3976 43.3488 19.5564 43.6234 18.7027C42.9478 18.2067 42.2581 17.6648 41.5543 17.077C40.8475 16.479 40.1811 15.8854 39.555 15.2962C38.9289 14.7069 38.4027 14.1708 37.9763 13.6878L40.0971 11.8674C40.4302 12.3009 40.8269 12.7596 41.2869 13.2435C41.7572 13.7242 42.2561 14.2074 42.7836 14.6929C43.3213 15.1753 43.8614 15.6292 44.4039 16.0543C44.9602 13.9319 45.3305 11.8944 45.5149 9.94159L48.363 10.1743C48.172 11.1921 47.94 12.2949 47.6671 13.4828C47.4012 14.6573 47.0957 15.8663 46.7505 17.1098C46.4124 18.3399 46.0375 19.559 45.6257 20.7671C45.2171 21.9853 44.7765 23.1353 44.3038 24.217Z" fill="#0DAE4E"/>
<path d="M10.7314 23.0595C10.8681 22.1956 11.0306 21.271 11.2189 20.2856C11.4072 19.3003 11.6085 18.3008 11.8229 17.2872C12.0372 16.2736 12.2483 15.2811 12.456 14.3096C12.6742 13.3398 12.8833 12.428 13.0832 11.5741C13.2847 10.7096 13.4599 9.94363 13.6088 9.27603L16.2428 9.72606C16.0846 10.3166 15.9147 10.9808 15.7331 11.7188C15.5621 12.4585 15.3836 13.2456 15.1975 14.0801C15.5231 14.0021 15.8646 13.9591 16.2223 13.951C16.5922 13.934 16.9825 13.9581 17.3934 14.0232C17.9518 14.1118 18.4688 14.2909 18.9445 14.5608C19.4323 14.8217 19.8517 15.1744 20.2026 15.6188C20.5534 16.0633 20.7972 16.6041 20.934 17.2414C21.0813 17.8803 21.0882 18.6212 20.9549 19.4641C20.8132 20.3596 20.5643 21.1139 20.2081 21.727C19.8519 22.3402 19.4245 22.8232 18.9258 23.1761C18.4272 23.5291 17.8882 23.7622 17.3087 23.8755C16.7381 24.0011 16.1683 24.0187 15.5994 23.9285C15.1675 23.86 14.771 23.7378 14.4101 23.5618C14.0597 23.3874 13.7415 23.1804 13.4554 22.9406C13.4288 23.1092 13.4021 23.2777 13.3754 23.4463L10.7314 23.0595ZM16.6099 16.6206C15.8197 16.4953 15.1404 16.6252 14.5719 17.0103C14.3764 17.9729 14.1895 18.9152 14.0112 19.8374C14.4191 20.604 15.0866 21.0608 16.0137 21.2078C16.3192 21.2563 16.6355 21.2362 16.9627 21.1477C17.3021 21.0503 17.6047 20.8445 17.8704 20.5302C18.1361 20.2159 18.3181 19.748 18.4165 19.1264C18.5281 18.4205 18.4288 17.854 18.1184 17.4268C17.8186 17.0012 17.3157 16.7325 16.6099 16.6206Z" fill="#4252E2"/>
<path d="M17.0392 41.5466C16.1423 42.248 15.2079 42.6589 14.2362 42.7791C13.2702 42.9066 12.3285 42.7544 11.4113 42.3224C10.494 41.8905 9.65638 41.1889 8.89837 40.2177C8.61125 39.8498 8.33665 39.407 8.07459 38.8891C7.81413 38.3582 7.61168 37.7878 7.46724 37.178C7.31706 36.5609 7.26831 35.9295 7.32098 35.284C7.37365 34.6386 7.56094 34.0063 7.88285 33.3872C8.19902 32.7608 8.69529 32.183 9.37166 31.6541C9.95246 31.1998 10.5172 30.8766 11.0658 30.6846C11.6086 30.4851 12.1243 30.3721 12.6127 30.3456C13.0953 30.3117 13.5315 30.332 13.9211 30.4065C14.318 30.4752 14.6565 30.56 14.9366 30.6609C15.2109 30.7544 15.4119 30.8224 15.5396 30.8647L14.8967 33.3403C14.4995 33.1651 14.0786 33.0203 13.6341 32.9059C13.1839 32.7841 12.7224 32.754 12.2496 32.8157C11.7768 32.8774 11.3015 33.0951 10.8236 33.4689C10.331 33.8541 10.0091 34.2836 9.85792 34.7573C9.70671 35.231 9.66761 35.7119 9.74061 36.1998C9.82097 36.682 9.97369 37.1432 10.1988 37.5833C10.4181 38.016 10.6541 38.3943 10.9068 38.718C11.1767 39.0638 11.4805 39.3772 11.8182 39.6581C12.1558 39.9391 12.522 40.1504 12.9166 40.292C13.3187 40.4278 13.7364 40.4625 14.1699 40.3959C14.605 40.3163 15.0542 40.0954 15.5173 39.7331C16.032 39.3306 16.3792 38.9109 16.5592 38.474C16.7464 38.0313 16.8211 37.5582 16.7833 37.0546C16.7397 36.5436 16.6383 35.989 16.4792 35.3907L18.9252 34.7929C19.1242 35.7155 19.214 36.5813 19.1944 37.3905C19.1748 38.1997 18.9963 38.9495 18.659 39.6399C18.3217 40.3303 17.7818 40.9658 17.0392 41.5466Z" fill="#F33838"/>
<ellipse cx="29.6913" cy="13.0667" rx="5.12799" ry="5.6" fill="#FCFCFC"/>
<path d="M28.6035 20.6001C28.6035 20.0478 29.0512 19.6001 29.6035 19.6001H29.779C30.3313 19.6001 30.779 20.0478 30.779 20.6001V34.8445H28.6035V20.6001Z" fill="#FCFCFC"/>
<path d="M29.3801 33.6628L30.561 34.6605L18.45 44.2025C18.1147 44.4667 17.5784 44.4576 17.2523 44.182C16.9262 43.9065 16.9337 43.469 17.269 43.2048L29.3801 33.6628Z" fill="#FCFCFC"/>
<path d="M28.9023 32.8179L30.5711 32.5532L33.7489 45.8913C33.857 46.3452 33.5711 46.7724 33.1103 46.8455C32.6494 46.9186 32.1882 46.6099 32.0801 46.156L28.9023 32.8179Z" fill="#FCFCFC"/>
<path d="M29.3357 21.3085L30.3032 22.2582L22.3664 28.5745C21.7805 29.0407 20.8724 28.9935 20.3381 28.469L29.3357 21.3085Z" fill="#FCFCFC"/>
<path d="M30.0641 21.308L29.0967 22.2577L37.0334 28.574C37.6193 29.0402 38.5274 28.993 39.0617 28.4685L30.0641 21.308Z" fill="#FCFCFC"/>
<path d="M22.0281 28.3882L21.9427 28.7416C21.8527 29.1143 21.4304 29.3318 21.0677 29.1924L14.7911 26.7796C14.5925 26.7033 14.5044 26.4851 14.5942 26.2923C14.6812 26.1056 14.904 26.0101 15.1 26.0755L22.0281 28.3882Z" fill="#FCFCFC"/>
<path d="M37.3856 28.3882L37.471 28.7416C37.5611 29.1143 37.9833 29.3318 38.3461 29.1924L44.6227 26.7796C44.8212 26.7033 44.9094 26.4851 44.8195 26.2923C44.7326 26.1056 44.5097 26.0101 44.3138 26.0755L37.3856 28.3882Z" fill="#FCFCFC"/>
</svg>
