<svg width="300" height="356" viewBox="0 0 300 356" fill="none" xmlns="http://www.w3.org/2000/svg">
<path d="M45.9185 103.72C45.9185 58.9854 82.1834 22.7204 126.918 22.7204H269C286.121 22.7204 300 36.5996 300 53.7204V183.803C300 228.538 263.735 264.803 219 264.803H64.9185C54.4251 264.803 45.9185 256.296 45.9185 245.803V103.72Z" fill="#F4BF37"/>
<g filter="url(#filter0_f_132_76)">
<ellipse cx="142.347" cy="143.762" rx="130.102" ry="113.06" fill="black" fill-opacity="0.14"/>
</g>
<ellipse cx="125.692" cy="144.946" rx="125.692" ry="107.576" fill="white"/>
<g filter="url(#filter1_d_132_76)">
<path d="M0 37.4444C0 22.5327 12.0883 10.4444 27 10.4444H108.673V63.2518C108.673 78.1634 96.5851 90.2517 81.6735 90.2517H0V37.4444Z" fill="#32D085"/>
</g>
<path d="M45.231 43.8C46.9257 44.128 48.2103 44.8933 49.085 46.096C50.0143 47.244 50.479 48.6107 50.479 50.196C50.479 51.7813 49.9597 53.1753 48.921 54.378C47.937 55.5807 46.461 56.182 44.493 56.182C43.7277 56.182 42.935 56.0453 42.115 55.772C41.295 55.444 40.5297 54.9247 39.819 54.214C39.163 53.4487 38.6163 52.492 38.179 51.344C37.7417 50.1413 37.523 48.6653 37.523 46.916C37.523 45.1667 37.7963 43.4993 38.343 41.914C38.8897 40.3287 39.6277 38.8527 40.557 37.486C41.541 36.1193 42.6343 34.9167 43.837 33.878C45.0943 32.7847 46.4063 31.8553 47.773 31.09L50.643 35.026C49.0577 35.9007 47.6363 37.076 46.379 38.552C45.1217 39.9733 44.3017 41.6407 43.919 43.554L45.231 43.8ZM63.517 43.8C65.157 44.128 66.4143 44.8933 67.289 46.096C68.2183 47.244 68.683 48.6107 68.683 50.196C68.683 51.7813 68.1637 53.1753 67.125 54.378C66.141 55.5807 64.665 56.182 62.697 56.182C61.9317 56.182 61.139 56.0453 60.319 55.772C59.499 55.444 58.7337 54.9247 58.023 54.214C57.367 53.4487 56.8203 52.492 56.383 51.344C55.9457 50.1413 55.727 48.6653 55.727 46.916C55.727 45.1667 56.0003 43.4993 56.547 41.914C57.1483 40.3287 57.9137 38.8527 58.843 37.486C59.7723 36.1193 60.8657 34.9167 62.123 33.878C63.3803 32.7847 64.6923 31.8553 66.059 31.09L68.929 35.026C67.3437 35.9007 65.9223 37.076 64.665 38.552C63.4077 39.9733 62.5877 41.6407 62.205 43.554L63.517 43.8Z" fill="white"/>
<g filter="url(#filter2_d_132_76)">
<path d="M180.419 248.991C180.419 234.08 192.507 221.991 207.419 221.991H289.092V274.799C289.092 289.71 277.004 301.799 262.092 301.799H180.419V248.991Z" fill="#66A2FB"/>
</g>
<path d="M224.174 255.804C222.479 255.531 221.167 254.793 220.238 253.59C219.363 252.388 218.926 250.994 218.926 249.408C218.926 247.823 219.445 246.429 220.484 245.226C221.523 244.024 223.026 243.422 224.994 243.422C225.759 243.422 226.552 243.586 227.372 243.914C228.192 244.188 228.93 244.68 229.586 245.39C230.242 246.101 230.789 247.058 231.226 248.26C231.663 249.408 231.882 250.83 231.882 252.524C231.882 254.274 231.609 255.968 231.062 257.608C230.515 259.194 229.75 260.67 228.766 262.036C227.837 263.403 226.743 264.66 225.486 265.808C224.283 266.902 222.999 267.804 221.632 268.514L218.762 264.578C220.347 263.704 221.769 262.556 223.026 261.134C224.283 259.658 225.103 257.964 225.486 256.05L224.174 255.804ZM242.378 255.804C240.738 255.531 239.453 254.793 238.524 253.59C237.649 252.388 237.212 250.994 237.212 249.408C237.212 247.823 237.731 246.429 238.77 245.226C239.809 244.024 241.312 243.422 243.28 243.422C244.045 243.422 244.838 243.586 245.658 243.914C246.478 244.188 247.216 244.68 247.872 245.39C248.528 246.101 249.075 247.058 249.512 248.26C249.949 249.408 250.168 250.83 250.168 252.524C250.168 254.274 249.867 255.968 249.266 257.608C248.719 259.194 247.981 260.67 247.052 262.036C246.123 263.403 245.029 264.66 243.772 265.808C242.515 266.902 241.203 267.804 239.836 268.514L236.966 264.578C238.551 263.704 239.973 262.556 241.23 261.134C242.487 259.658 243.307 257.964 243.69 256.05L242.378 255.804Z" fill="white"/>
<path d="M32.6862 120.295C31.8328 120.295 31.0382 120.156 30.3022 119.879C29.5768 119.591 28.9422 119.191 28.3982 118.679C27.8648 118.156 27.4488 117.543 27.1502 116.839C26.8515 116.135 26.7022 115.367 26.7022 114.535C26.7022 113.703 26.8515 112.935 27.1502 112.231C27.4488 111.527 27.8702 110.919 28.4142 110.407C28.9582 109.884 29.5928 109.484 30.3182 109.207C31.0435 108.919 31.8382 108.775 32.7022 108.775C33.6195 108.775 34.4568 108.935 35.2142 109.255C35.9715 109.564 36.6115 110.028 37.1342 110.647L35.7902 111.911C35.3848 111.473 34.9315 111.148 34.4302 110.935C33.9288 110.711 33.3848 110.599 32.7982 110.599C32.2115 110.599 31.6728 110.695 31.1822 110.887C30.7022 111.079 30.2808 111.351 29.9182 111.703C29.5662 112.055 29.2888 112.471 29.0862 112.951C28.8942 113.431 28.7982 113.959 28.7982 114.535C28.7982 115.111 28.8942 115.639 29.0862 116.119C29.2888 116.599 29.5662 117.015 29.9182 117.367C30.2808 117.719 30.7022 117.991 31.1822 118.183C31.6728 118.375 32.2115 118.471 32.7982 118.471C33.3848 118.471 33.9288 118.364 34.4302 118.151C34.9315 117.927 35.3848 117.591 35.7902 117.143L37.1342 118.423C36.6115 119.031 35.9715 119.495 35.2142 119.815C34.4568 120.135 33.6142 120.295 32.6862 120.295ZM43.9473 120.135V118.407L43.8353 118.039V115.015C43.8353 114.428 43.6593 113.975 43.3073 113.655C42.9553 113.324 42.422 113.159 41.7073 113.159C41.2273 113.159 40.7526 113.233 40.2833 113.383C39.8246 113.532 39.4353 113.74 39.1153 114.007L38.3313 112.551C38.79 112.199 39.334 111.937 39.9633 111.767C40.6033 111.585 41.2646 111.495 41.9473 111.495C43.1846 111.495 44.1393 111.793 44.8113 112.391C45.494 112.977 45.8353 113.889 45.8353 115.127V120.135H43.9473ZM41.2593 120.247C40.6193 120.247 40.0593 120.14 39.5793 119.927C39.0993 119.703 38.726 119.399 38.4593 119.015C38.2033 118.62 38.0753 118.177 38.0753 117.687C38.0753 117.207 38.1873 116.775 38.4113 116.391C38.646 116.007 39.0246 115.703 39.5473 115.479C40.07 115.255 40.7633 115.143 41.6273 115.143H44.1073V116.471H41.7713C41.0886 116.471 40.63 116.583 40.3953 116.807C40.1606 117.02 40.0433 117.287 40.0433 117.607C40.0433 117.969 40.1873 118.257 40.4753 118.471C40.7633 118.684 41.1633 118.791 41.6753 118.791C42.166 118.791 42.6033 118.679 42.9873 118.455C43.382 118.231 43.6646 117.9 43.8353 117.463L44.1713 118.663C43.9793 119.164 43.6326 119.553 43.1313 119.831C42.6406 120.108 42.0166 120.247 41.2593 120.247ZM48.3102 120.135V111.591H50.4062L53.8462 117.655H53.0142L56.6302 111.591H58.5022L58.5182 120.135H56.7102V113.735L57.0302 113.943L53.8302 119.239H52.9662L49.7502 113.799L50.1342 113.703V120.135H48.3102ZM66.3848 120.135V118.407L66.2728 118.039V115.015C66.2728 114.428 66.0968 113.975 65.7448 113.655C65.3928 113.324 64.8595 113.159 64.1448 113.159C63.6648 113.159 63.1901 113.233 62.7208 113.383C62.2621 113.532 61.8728 113.74 61.5528 114.007L60.7688 112.551C61.2275 112.199 61.7715 111.937 62.4008 111.767C63.0408 111.585 63.7021 111.495 64.3848 111.495C65.6221 111.495 66.5768 111.793 67.2488 112.391C67.9315 112.977 68.2728 113.889 68.2728 115.127V120.135H66.3848ZM63.6968 120.247C63.0568 120.247 62.4968 120.14 62.0168 119.927C61.5368 119.703 61.1635 119.399 60.8968 119.015C60.6408 118.62 60.5128 118.177 60.5128 117.687C60.5128 117.207 60.6248 116.775 60.8488 116.391C61.0835 116.007 61.4621 115.703 61.9848 115.479C62.5075 115.255 63.2008 115.143 64.0648 115.143H66.5448V116.471H64.2088C63.5261 116.471 63.0675 116.583 62.8328 116.807C62.5981 117.02 62.4808 117.287 62.4808 117.607C62.4808 117.969 62.6248 118.257 62.9128 118.471C63.2008 118.684 63.6008 118.791 64.1128 118.791C64.6035 118.791 65.0408 118.679 65.4248 118.455C65.8195 118.231 66.1021 117.9 66.2728 117.463L66.6088 118.663C66.4168 119.164 66.0701 119.553 65.5688 119.831C65.0781 120.108 64.4541 120.247 63.6968 120.247ZM76.1717 120.135V117.223L76.4597 117.559H73.8997C72.7263 117.559 71.8037 117.313 71.1317 116.823C70.4703 116.321 70.1397 115.601 70.1397 114.663C70.1397 113.66 70.4917 112.897 71.1957 112.375C71.9103 111.852 72.8597 111.591 74.0437 111.591H77.9637V120.135H76.1717ZM70.0277 120.135L72.3317 116.871H74.3797L72.1717 120.135H70.0277ZM76.1717 116.583V112.743L76.4597 113.271H74.1077C73.489 113.271 73.009 113.388 72.6677 113.623C72.337 113.847 72.1717 114.215 72.1717 114.727C72.1717 115.687 72.7957 116.167 74.0437 116.167H76.4597L76.1717 116.583ZM83.8278 120.119L83.9238 118.439C83.9985 118.449 84.0678 118.46 84.1318 118.471C84.1958 118.481 84.2545 118.487 84.3078 118.487C84.6385 118.487 84.8945 118.385 85.0758 118.183C85.2571 117.98 85.3905 117.708 85.4758 117.367C85.5718 117.015 85.6358 116.625 85.6678 116.199C85.7105 115.761 85.7425 115.324 85.7638 114.887L85.9078 111.591H92.8198V120.135H90.8198V112.743L91.2838 113.287H87.2198L87.6518 112.727L87.5398 114.983C87.5078 115.74 87.4438 116.444 87.3478 117.095C87.2625 117.735 87.1238 118.295 86.9318 118.775C86.7505 119.255 86.4945 119.628 86.1638 119.895C85.8438 120.161 85.4331 120.295 84.9318 120.295C84.7718 120.295 84.5958 120.279 84.4038 120.247C84.2225 120.215 84.0305 120.172 83.8278 120.119ZM96.2813 123.351C95.8653 123.351 95.4493 123.281 95.0333 123.143C94.6173 123.004 94.2706 122.812 93.9933 122.567L94.7933 121.095C94.996 121.276 95.2253 121.42 95.4813 121.527C95.7373 121.633 95.9986 121.687 96.2653 121.687C96.628 121.687 96.9213 121.596 97.1453 121.415C97.3693 121.233 97.5773 120.929 97.7693 120.503L98.2653 119.383L98.4253 119.143L101.657 111.591H103.577L99.5773 120.823C99.3106 121.463 99.012 121.969 98.6813 122.343C98.3613 122.716 97.9986 122.977 97.5933 123.127C97.1986 123.276 96.7613 123.351 96.2813 123.351ZM98.0413 120.439L94.1853 111.591H96.2653L99.4013 118.967L98.0413 120.439ZM110.358 116.759C109.953 116.951 109.521 117.111 109.062 117.239C108.614 117.356 108.14 117.415 107.638 117.415C106.561 117.415 105.724 117.164 105.126 116.663C104.529 116.161 104.23 115.383 104.23 114.327V111.591H106.23V114.199C106.23 114.764 106.39 115.175 106.71 115.431C107.041 115.687 107.494 115.815 108.07 115.815C108.454 115.815 108.838 115.767 109.222 115.671C109.606 115.575 109.985 115.441 110.358 115.271V116.759ZM110.214 120.135V111.591H112.214V120.135H110.214ZM120.648 118.439L120.216 118.919V111.591H122.216V118.919L121.736 118.439H125.96L125.496 118.919V111.591H127.496V120.135H114.904V111.591H116.904V118.919L116.44 118.439H120.648ZM135.369 120.135V118.407L135.257 118.039V115.015C135.257 114.428 135.081 113.975 134.729 113.655C134.377 113.324 133.844 113.159 133.129 113.159C132.649 113.159 132.175 113.233 131.705 113.383C131.247 113.532 130.857 113.74 130.537 114.007L129.753 112.551C130.212 112.199 130.756 111.937 131.385 111.767C132.025 111.585 132.687 111.495 133.369 111.495C134.607 111.495 135.561 111.793 136.233 112.391C136.916 112.977 137.257 113.889 137.257 115.127V120.135H135.369ZM132.681 120.247C132.041 120.247 131.481 120.14 131.001 119.927C130.521 119.703 130.148 119.399 129.881 119.015C129.625 118.62 129.497 118.177 129.497 117.687C129.497 117.207 129.609 116.775 129.833 116.391C130.068 116.007 130.447 115.703 130.969 115.479C131.492 115.255 132.185 115.143 133.049 115.143H135.529V116.471H133.193C132.511 116.471 132.052 116.583 131.817 116.807C131.583 117.02 131.465 117.287 131.465 117.607C131.465 117.969 131.609 118.257 131.897 118.471C132.185 118.684 132.585 118.791 133.097 118.791C133.588 118.791 134.025 118.679 134.409 118.455C134.804 118.231 135.087 117.9 135.257 117.463L135.593 118.663C135.401 119.164 135.055 119.553 134.553 119.831C134.063 120.108 133.439 120.247 132.681 120.247ZM145.156 120.135V117.223L145.444 117.559H142.884C141.711 117.559 140.788 117.313 140.116 116.823C139.455 116.321 139.124 115.601 139.124 114.663C139.124 113.66 139.476 112.897 140.18 112.375C140.895 111.852 141.844 111.591 143.028 111.591H146.948V120.135H145.156ZM139.012 120.135L141.316 116.871H143.364L141.156 120.135H139.012ZM145.156 116.583V112.743L145.444 113.271H143.092C142.473 113.271 141.993 113.388 141.652 113.623C141.321 113.847 141.156 114.215 141.156 114.727C141.156 115.687 141.78 116.167 143.028 116.167H145.444L145.156 116.583ZM158.796 120.247C158.103 120.247 157.468 120.087 156.892 119.767C156.327 119.447 155.874 118.967 155.532 118.327C155.202 117.676 155.036 116.855 155.036 115.863C155.036 114.86 155.196 114.039 155.516 113.399C155.847 112.759 156.295 112.284 156.86 111.975C157.426 111.655 158.071 111.495 158.796 111.495C159.639 111.495 160.38 111.676 161.02 112.039C161.671 112.401 162.183 112.908 162.556 113.559C162.94 114.209 163.132 114.977 163.132 115.863C163.132 116.748 162.94 117.521 162.556 118.183C162.183 118.833 161.671 119.34 161.02 119.703C160.38 120.065 159.639 120.247 158.796 120.247ZM154.06 123.239V111.591H155.964V113.607L155.9 115.879L156.06 118.151V123.239H154.06ZM158.572 118.535C159.052 118.535 159.479 118.428 159.852 118.215C160.236 118.001 160.54 117.692 160.764 117.287C160.988 116.881 161.1 116.407 161.1 115.863C161.1 115.308 160.988 114.833 160.764 114.439C160.54 114.033 160.236 113.724 159.852 113.511C159.479 113.297 159.052 113.191 158.572 113.191C158.092 113.191 157.66 113.297 157.276 113.511C156.892 113.724 156.588 114.033 156.364 114.439C156.14 114.833 156.028 115.308 156.028 115.863C156.028 116.407 156.14 116.881 156.364 117.287C156.588 117.692 156.892 118.001 157.276 118.215C157.66 118.428 158.092 118.535 158.572 118.535ZM170.197 120.135V118.407L170.085 118.039V115.015C170.085 114.428 169.909 113.975 169.557 113.655C169.205 113.324 168.672 113.159 167.957 113.159C167.477 113.159 167.003 113.233 166.533 113.383C166.075 113.532 165.685 113.74 165.365 114.007L164.581 112.551C165.04 112.199 165.584 111.937 166.213 111.767C166.853 111.585 167.515 111.495 168.197 111.495C169.435 111.495 170.389 111.793 171.061 112.391C171.744 112.977 172.085 113.889 172.085 115.127V120.135H170.197ZM167.509 120.247C166.869 120.247 166.309 120.14 165.829 119.927C165.349 119.703 164.976 119.399 164.709 119.015C164.453 118.62 164.325 118.177 164.325 117.687C164.325 117.207 164.437 116.775 164.661 116.391C164.896 116.007 165.275 115.703 165.797 115.479C166.32 115.255 167.013 115.143 167.877 115.143H170.357V116.471H168.021C167.339 116.471 166.88 116.583 166.645 116.807C166.411 117.02 166.293 117.287 166.293 117.607C166.293 117.969 166.437 118.257 166.725 118.471C167.013 118.684 167.413 118.791 167.925 118.791C168.416 118.791 168.853 118.679 169.237 118.455C169.632 118.231 169.915 117.9 170.085 117.463L170.421 118.663C170.229 119.164 169.883 119.553 169.381 119.831C168.891 120.108 168.267 120.247 167.509 120.247ZM178.64 120.295C177.936 120.295 177.307 120.188 176.752 119.975C176.198 119.761 175.718 119.436 175.312 118.999C174.918 118.551 174.614 117.985 174.4 117.303C174.187 116.62 174.08 115.809 174.08 114.871C174.08 114.188 174.139 113.564 174.256 112.999C174.374 112.433 174.55 111.927 174.784 111.479C175.019 111.02 175.312 110.615 175.664 110.263C176.027 109.911 176.448 109.617 176.928 109.383C177.408 109.148 177.952 108.967 178.56 108.839L182.528 107.991L182.816 109.783L179.216 110.519C179.014 110.561 178.768 110.625 178.48 110.711C178.203 110.785 177.915 110.903 177.616 111.063C177.328 111.212 177.056 111.431 176.8 111.719C176.555 111.996 176.352 112.359 176.192 112.807C176.043 113.244 175.968 113.793 175.968 114.455C175.968 114.657 175.974 114.812 175.984 114.919C176.006 115.015 176.022 115.121 176.032 115.239C176.054 115.345 176.064 115.505 176.064 115.719L175.312 114.935C175.526 114.391 175.819 113.927 176.192 113.543C176.576 113.148 177.019 112.849 177.52 112.647C178.032 112.433 178.587 112.327 179.184 112.327C179.984 112.327 180.694 112.492 181.312 112.823C181.931 113.153 182.416 113.617 182.768 114.215C183.12 114.812 183.296 115.489 183.296 116.247C183.296 117.036 183.104 117.735 182.72 118.343C182.336 118.951 181.792 119.431 181.088 119.783C180.395 120.124 179.579 120.295 178.64 120.295ZM178.8 118.679C179.28 118.679 179.702 118.577 180.064 118.375C180.438 118.161 180.726 117.873 180.928 117.511C181.142 117.148 181.248 116.743 181.248 116.295C181.248 115.847 181.142 115.457 180.928 115.127C180.726 114.785 180.438 114.513 180.064 114.311C179.702 114.108 179.27 114.007 178.768 114.007C178.288 114.007 177.856 114.103 177.472 114.295C177.099 114.487 176.806 114.753 176.592 115.095C176.39 115.425 176.288 115.809 176.288 116.247C176.288 116.695 176.395 117.105 176.608 117.479C176.822 117.852 177.115 118.145 177.488 118.359C177.872 118.572 178.31 118.679 178.8 118.679ZM189.04 120.247C188.165 120.247 187.387 120.06 186.704 119.687C186.021 119.303 185.483 118.78 185.088 118.119C184.693 117.457 184.496 116.705 184.496 115.863C184.496 115.009 184.693 114.257 185.088 113.607C185.483 112.945 186.021 112.428 186.704 112.055C187.387 111.681 188.165 111.495 189.04 111.495C189.925 111.495 190.709 111.681 191.392 112.055C192.085 112.428 192.624 112.94 193.008 113.591C193.403 114.241 193.6 114.999 193.6 115.863C193.6 116.705 193.403 117.457 193.008 118.119C192.624 118.78 192.085 119.303 191.392 119.687C190.709 120.06 189.925 120.247 189.04 120.247ZM189.04 118.535C189.531 118.535 189.968 118.428 190.352 118.215C190.736 118.001 191.035 117.692 191.248 117.287C191.472 116.881 191.584 116.407 191.584 115.863C191.584 115.308 191.472 114.833 191.248 114.439C191.035 114.033 190.736 113.724 190.352 113.511C189.968 113.297 189.536 113.191 189.056 113.191C188.565 113.191 188.128 113.297 187.744 113.511C187.371 113.724 187.072 114.033 186.848 114.439C186.624 114.833 186.512 115.308 186.512 115.863C186.512 116.407 186.624 116.881 186.848 117.287C187.072 117.692 187.371 118.001 187.744 118.215C188.128 118.428 188.56 118.535 189.04 118.535ZM197.039 120.135V112.807L197.503 113.287H194.031V111.591H202.031V113.287H198.575L199.039 112.807V120.135H197.039ZM208.666 120.135V118.407L208.554 118.039V115.015C208.554 114.428 208.378 113.975 208.026 113.655C207.674 113.324 207.141 113.159 206.426 113.159C205.946 113.159 205.471 113.233 205.002 113.383C204.543 113.532 204.154 113.74 203.834 114.007L203.05 112.551C203.509 112.199 204.053 111.937 204.682 111.767C205.322 111.585 205.983 111.495 206.666 111.495C207.903 111.495 208.858 111.793 209.53 112.391C210.213 112.977 210.554 113.889 210.554 115.127V120.135H208.666ZM205.978 120.247C205.338 120.247 204.778 120.14 204.298 119.927C203.818 119.703 203.445 119.399 203.178 119.015C202.922 118.62 202.794 118.177 202.794 117.687C202.794 117.207 202.906 116.775 203.13 116.391C203.365 116.007 203.743 115.703 204.266 115.479C204.789 115.255 205.482 115.143 206.346 115.143H208.826V116.471H206.49C205.807 116.471 205.349 116.583 205.114 116.807C204.879 117.02 204.762 117.287 204.762 117.607C204.762 117.969 204.906 118.257 205.194 118.471C205.482 118.684 205.882 118.791 206.394 118.791C206.885 118.791 207.322 118.679 207.706 118.455C208.101 118.231 208.383 117.9 208.554 117.463L208.89 118.663C208.698 119.164 208.351 119.553 207.85 119.831C207.359 120.108 206.735 120.247 205.978 120.247ZM216.107 116.343V115.031H224.107V116.343H216.107ZM18.0013 136.535V135.095H22.6413V136.535H18.0013ZM19.1693 131.463C20.0866 131.463 20.8973 131.655 21.6013 132.039C22.3053 132.412 22.86 132.929 23.2653 133.591C23.6706 134.241 23.8733 134.999 23.8733 135.863C23.8733 136.716 23.6706 137.479 23.2653 138.151C22.86 138.812 22.3053 139.335 21.6013 139.719C20.8973 140.092 20.0866 140.279 19.1693 140.279C18.4013 140.279 17.6973 140.151 17.0573 139.895C16.4173 139.639 15.884 139.271 15.4573 138.791L16.6093 137.671C16.9506 138.001 17.324 138.252 17.7293 138.423C18.1453 138.593 18.5986 138.679 19.0893 138.679C19.6653 138.679 20.172 138.561 20.6093 138.327C21.0466 138.081 21.3933 137.745 21.6493 137.319C21.9053 136.892 22.0333 136.407 22.0333 135.863C22.0333 135.308 21.9053 134.823 21.6493 134.407C21.3933 133.98 21.0466 133.649 20.6093 133.415C20.172 133.169 19.6653 133.047 19.0893 133.047C18.5986 133.047 18.1453 133.132 17.7293 133.303C17.324 133.473 16.9506 133.729 16.6093 134.071L15.4573 132.951C15.884 132.471 16.4173 132.103 17.0573 131.847C17.6973 131.591 18.4013 131.463 19.1693 131.463ZM27.2737 140.135V132.807L27.7377 133.287H24.2657V131.591H32.2657V133.287H28.8097L29.2737 132.807V140.135H27.2737ZM37.1494 140.247C36.2748 140.247 35.4961 140.06 34.8134 139.687C34.1308 139.303 33.5921 138.78 33.1974 138.119C32.8028 137.457 32.6054 136.705 32.6054 135.863C32.6054 135.009 32.8028 134.257 33.1974 133.607C33.5921 132.945 34.1308 132.428 34.8134 132.055C35.4961 131.681 36.2748 131.495 37.1494 131.495C38.0348 131.495 38.8188 131.681 39.5014 132.055C40.1948 132.428 40.7334 132.94 41.1174 133.591C41.5121 134.241 41.7094 134.999 41.7094 135.863C41.7094 136.705 41.5121 137.457 41.1174 138.119C40.7334 138.78 40.1948 139.303 39.5014 139.687C38.8188 140.06 38.0348 140.247 37.1494 140.247ZM37.1494 138.535C37.6401 138.535 38.0774 138.428 38.4614 138.215C38.8454 138.001 39.1441 137.692 39.3574 137.287C39.5814 136.881 39.6934 136.407 39.6934 135.863C39.6934 135.308 39.5814 134.833 39.3574 134.439C39.1441 134.033 38.8454 133.724 38.4614 133.511C38.0774 133.297 37.6454 133.191 37.1654 133.191C36.6748 133.191 36.2374 133.297 35.8534 133.511C35.4801 133.724 35.1814 134.033 34.9574 134.439C34.7334 134.833 34.6214 135.308 34.6214 135.863C34.6214 136.407 34.7334 136.881 34.9574 137.287C35.1814 137.692 35.4801 138.001 35.8534 138.215C36.2374 138.428 36.6694 138.535 37.1494 138.535ZM48.1071 140.135V131.591H52.2831C53.3177 131.591 54.1284 131.783 54.7151 132.167C55.3124 132.551 55.6111 133.095 55.6111 133.799C55.6111 134.492 55.3337 135.036 54.7791 135.431C54.2244 135.815 53.4884 136.007 52.5711 136.007L52.8111 135.511C53.8457 135.511 54.6137 135.703 55.1151 136.087C55.6271 136.46 55.8831 137.009 55.8831 137.735C55.8831 138.492 55.6004 139.084 55.0351 139.511C54.4697 139.927 53.6111 140.135 52.4591 140.135H48.1071ZM50.0111 138.679H52.2991C52.8431 138.679 53.2537 138.593 53.5311 138.423C53.8084 138.241 53.9471 137.969 53.9471 137.607C53.9471 137.223 53.8191 136.94 53.5631 136.759C53.3071 136.577 52.9071 136.487 52.3631 136.487H50.0111V138.679ZM50.0111 135.159H52.1071C52.6191 135.159 53.0031 135.068 53.2591 134.887C53.5257 134.695 53.6591 134.428 53.6591 134.087C53.6591 133.735 53.5257 133.473 53.2591 133.303C53.0031 133.132 52.6191 133.047 52.1071 133.047H50.0111V135.159ZM66.6373 140.135V131.591H68.6373V140.135H66.6373ZM62.1733 134.407C63.272 134.407 64.104 134.652 64.6693 135.143C65.2453 135.633 65.5333 136.327 65.5333 137.223C65.5333 138.151 65.2133 138.876 64.5733 139.399C63.944 139.911 63.048 140.161 61.8853 140.151L58.0133 140.135V131.591H60.0133V134.391L62.1733 134.407ZM61.7093 138.679C62.296 138.689 62.744 138.567 63.0533 138.311C63.3626 138.055 63.5173 137.681 63.5173 137.191C63.5173 136.7 63.3626 136.348 63.0533 136.135C62.7546 135.911 62.3066 135.793 61.7093 135.783L60.0133 135.767V138.663L61.7093 138.679ZM75.2138 140.247C74.3178 140.247 73.5178 140.06 72.8138 139.687C72.1205 139.303 71.5765 138.78 71.1818 138.119C70.7871 137.457 70.5898 136.705 70.5898 135.863C70.5898 135.009 70.7871 134.257 71.1818 133.607C71.5765 132.945 72.1205 132.428 72.8138 132.055C73.5178 131.681 74.3178 131.495 75.2138 131.495C76.0458 131.495 76.7765 131.665 77.4058 132.007C78.0458 132.337 78.5311 132.828 78.8618 133.479L77.3258 134.375C77.0698 133.969 76.7551 133.671 76.3818 133.479C76.0191 133.287 75.6245 133.191 75.1978 133.191C74.7071 133.191 74.2645 133.297 73.8698 133.511C73.4751 133.724 73.1658 134.033 72.9418 134.439C72.7178 134.833 72.6058 135.308 72.6058 135.863C72.6058 136.417 72.7178 136.897 72.9418 137.303C73.1658 137.697 73.4751 138.001 73.8698 138.215C74.2645 138.428 74.7071 138.535 75.1978 138.535C75.6245 138.535 76.0191 138.439 76.3818 138.247C76.7551 138.055 77.0698 137.756 77.3258 137.351L78.8618 138.247C78.5311 138.887 78.0458 139.383 77.4058 139.735C76.7765 140.076 76.0458 140.247 75.2138 140.247ZM84.3057 140.247C83.431 140.247 82.6523 140.06 81.9697 139.687C81.287 139.303 80.7483 138.78 80.3537 138.119C79.959 137.457 79.7617 136.705 79.7617 135.863C79.7617 135.009 79.959 134.257 80.3537 133.607C80.7483 132.945 81.287 132.428 81.9697 132.055C82.6523 131.681 83.431 131.495 84.3057 131.495C85.191 131.495 85.975 131.681 86.6577 132.055C87.351 132.428 87.8897 132.94 88.2737 133.591C88.6683 134.241 88.8657 134.999 88.8657 135.863C88.8657 136.705 88.6683 137.457 88.2737 138.119C87.8897 138.78 87.351 139.303 86.6577 139.687C85.975 140.06 85.191 140.247 84.3057 140.247ZM84.3057 138.535C84.7963 138.535 85.2337 138.428 85.6177 138.215C86.0017 138.001 86.3003 137.692 86.5137 137.287C86.7377 136.881 86.8497 136.407 86.8497 135.863C86.8497 135.308 86.7377 134.833 86.5137 134.439C86.3003 134.033 86.0017 133.724 85.6177 133.511C85.2337 133.297 84.8017 133.191 84.3217 133.191C83.831 133.191 83.3937 133.297 83.0097 133.511C82.6363 133.724 82.3377 134.033 82.1137 134.439C81.8897 134.833 81.7777 135.308 81.7777 135.863C81.7777 136.407 81.8897 136.881 82.1137 137.287C82.3377 137.692 82.6363 138.001 83.0097 138.215C83.3937 138.428 83.8257 138.535 84.3057 138.535ZM96.9694 140.135L93.8814 136.039L95.5134 135.031L99.3214 140.135H96.9694ZM90.8414 140.135V131.591H92.8414V140.135H90.8414ZM92.2494 136.711V135.047H95.1454V136.711H92.2494ZM95.7054 136.103L93.8334 135.879L96.9694 131.591H99.1134L95.7054 136.103ZM104.259 140.247C103.384 140.247 102.605 140.06 101.923 139.687C101.24 139.303 100.701 138.78 100.307 138.119C99.9121 137.457 99.7148 136.705 99.7148 135.863C99.7148 135.009 99.9121 134.257 100.307 133.607C100.701 132.945 101.24 132.428 101.923 132.055C102.605 131.681 103.384 131.495 104.259 131.495C105.144 131.495 105.928 131.681 106.611 132.055C107.304 132.428 107.843 132.94 108.227 133.591C108.621 134.241 108.819 134.999 108.819 135.863C108.819 136.705 108.621 137.457 108.227 138.119C107.843 138.78 107.304 139.303 106.611 139.687C105.928 140.06 105.144 140.247 104.259 140.247ZM104.259 138.535C104.749 138.535 105.187 138.428 105.571 138.215C105.955 138.001 106.253 137.692 106.467 137.287C106.691 136.881 106.803 136.407 106.803 135.863C106.803 135.308 106.691 134.833 106.467 134.439C106.253 134.033 105.955 133.724 105.571 133.511C105.187 133.297 104.755 133.191 104.275 133.191C103.784 133.191 103.347 133.297 102.963 133.511C102.589 133.724 102.291 134.033 102.067 134.439C101.843 134.833 101.731 135.308 101.731 135.863C101.731 136.407 101.843 136.881 102.067 137.287C102.291 137.692 102.589 138.001 102.963 138.215C103.347 138.428 103.779 138.535 104.259 138.535ZM114.603 140.247C113.728 140.247 112.949 140.06 112.267 139.687C111.584 139.303 111.045 138.78 110.651 138.119C110.256 137.457 110.059 136.705 110.059 135.863C110.059 135.009 110.256 134.257 110.651 133.607C111.045 132.945 111.584 132.428 112.267 132.055C112.949 131.681 113.728 131.495 114.603 131.495C115.488 131.495 116.272 131.681 116.955 132.055C117.648 132.428 118.187 132.94 118.571 133.591C118.965 134.241 119.163 134.999 119.163 135.863C119.163 136.705 118.965 137.457 118.571 138.119C118.187 138.78 117.648 139.303 116.955 139.687C116.272 140.06 115.488 140.247 114.603 140.247ZM114.603 138.535C115.093 138.535 115.531 138.428 115.915 138.215C116.299 138.001 116.597 137.692 116.811 137.287C117.035 136.881 117.147 136.407 117.147 135.863C117.147 135.308 117.035 134.833 116.811 134.439C116.597 134.033 116.299 133.724 115.915 133.511C115.531 133.297 115.099 133.191 114.619 133.191C114.128 133.191 113.691 133.297 113.307 133.511C112.933 133.724 112.635 134.033 112.411 134.439C112.187 134.833 112.075 135.308 112.075 135.863C112.075 136.407 112.187 136.881 112.411 137.287C112.635 137.692 112.933 138.001 113.307 138.215C113.691 138.428 114.123 138.535 114.603 138.535ZM121.138 140.135V131.591H129.33V140.135H127.346V132.823L127.81 133.287H122.674L123.138 132.823V140.135H121.138ZM130.781 140.119L130.877 138.439C130.952 138.449 131.021 138.46 131.085 138.471C131.149 138.481 131.208 138.487 131.261 138.487C131.592 138.487 131.848 138.385 132.029 138.183C132.21 137.98 132.344 137.708 132.429 137.367C132.525 137.015 132.589 136.625 132.621 136.199C132.664 135.761 132.696 135.324 132.717 134.887L132.861 131.591H139.773V140.135H137.773V132.743L138.237 133.287H134.173L134.605 132.727L134.493 134.983C134.461 135.74 134.397 136.444 134.301 137.095C134.216 137.735 134.077 138.295 133.885 138.775C133.704 139.255 133.448 139.628 133.117 139.895C132.797 140.161 132.386 140.295 131.885 140.295C131.725 140.295 131.549 140.279 131.357 140.247C131.176 140.215 130.984 140.172 130.781 140.119ZM147.65 140.135V138.407L147.538 138.039V135.015C147.538 134.428 147.362 133.975 147.01 133.655C146.658 133.324 146.125 133.159 145.41 133.159C144.93 133.159 144.456 133.233 143.986 133.383C143.528 133.532 143.138 133.74 142.818 134.007L142.034 132.551C142.493 132.199 143.037 131.937 143.666 131.767C144.306 131.585 144.968 131.495 145.65 131.495C146.888 131.495 147.842 131.793 148.514 132.391C149.197 132.977 149.538 133.889 149.538 135.127V140.135H147.65ZM144.962 140.247C144.322 140.247 143.762 140.14 143.282 139.927C142.802 139.703 142.429 139.399 142.162 139.015C141.906 138.62 141.778 138.177 141.778 137.687C141.778 137.207 141.89 136.775 142.114 136.391C142.349 136.007 142.728 135.703 143.25 135.479C143.773 135.255 144.466 135.143 145.33 135.143H147.81V136.471H145.474C144.792 136.471 144.333 136.583 144.098 136.807C143.864 137.02 143.746 137.287 143.746 137.607C143.746 137.969 143.89 138.257 144.178 138.471C144.466 138.684 144.866 138.791 145.378 138.791C145.869 138.791 146.306 138.679 146.69 138.455C147.085 138.231 147.368 137.9 147.538 137.463L147.874 138.663C147.682 139.164 147.336 139.553 146.834 139.831C146.344 140.108 145.72 140.247 144.962 140.247ZM157.405 136.759C157 136.951 156.568 137.111 156.109 137.239C155.661 137.356 155.187 137.415 154.685 137.415C153.608 137.415 152.771 137.164 152.173 136.663C151.576 136.161 151.277 135.383 151.277 134.327V131.591H153.277V134.199C153.277 134.764 153.437 135.175 153.757 135.431C154.088 135.687 154.541 135.815 155.117 135.815C155.501 135.815 155.885 135.767 156.269 135.671C156.653 135.575 157.032 135.441 157.405 135.271V136.759ZM157.261 140.135V131.591H159.261V140.135H157.261ZM161.951 140.135V131.591H163.951V137.223L168.671 131.591H170.495V140.135H168.495V134.503L163.791 140.135H161.951ZM173.185 140.135V131.591H177.361C178.396 131.591 179.207 131.783 179.793 132.167C180.391 132.551 180.689 133.095 180.689 133.799C180.689 134.492 180.412 135.036 179.857 135.431C179.303 135.815 178.567 136.007 177.649 136.007L177.889 135.511C178.924 135.511 179.692 135.703 180.193 136.087C180.705 136.46 180.961 137.009 180.961 137.735C180.961 138.492 180.679 139.084 180.113 139.511C179.548 139.927 178.689 140.135 177.537 140.135H173.185ZM175.089 138.679H177.377C177.921 138.679 178.332 138.593 178.609 138.423C178.887 138.241 179.025 137.969 179.025 137.607C179.025 137.223 178.897 136.94 178.641 136.759C178.385 136.577 177.985 136.487 177.441 136.487H175.089V138.679ZM175.089 135.159H177.185C177.697 135.159 178.081 135.068 178.337 134.887C178.604 134.695 178.737 134.428 178.737 134.087C178.737 133.735 178.604 133.473 178.337 133.303C178.081 133.132 177.697 133.047 177.185 133.047H175.089V135.159ZM188.275 140.135V138.407L188.163 138.039V135.015C188.163 134.428 187.987 133.975 187.635 133.655C187.283 133.324 186.75 133.159 186.035 133.159C185.555 133.159 185.081 133.233 184.611 133.383C184.153 133.532 183.763 133.74 183.443 134.007L182.659 132.551C183.118 132.199 183.662 131.937 184.291 131.767C184.931 131.585 185.593 131.495 186.275 131.495C187.513 131.495 188.467 131.793 189.139 132.391C189.822 132.977 190.163 133.889 190.163 135.127V140.135H188.275ZM185.587 140.247C184.947 140.247 184.387 140.14 183.907 139.927C183.427 139.703 183.054 139.399 182.787 139.015C182.531 138.62 182.403 138.177 182.403 137.687C182.403 137.207 182.515 136.775 182.739 136.391C182.974 136.007 183.353 135.703 183.875 135.479C184.398 135.255 185.091 135.143 185.955 135.143H188.435V136.471H186.099C185.417 136.471 184.958 136.583 184.723 136.807C184.489 137.02 184.371 137.287 184.371 137.607C184.371 137.969 184.515 138.257 184.803 138.471C185.091 138.684 185.491 138.791 186.003 138.791C186.494 138.791 186.931 138.679 187.315 138.455C187.71 138.231 187.993 137.9 188.163 137.463L188.499 138.663C188.307 139.164 187.961 139.553 187.459 139.831C186.969 140.108 186.345 140.247 185.587 140.247ZM196.622 140.247C195.673 140.247 194.841 140.06 194.126 139.687C193.422 139.303 192.873 138.78 192.478 138.119C192.094 137.457 191.902 136.705 191.902 135.863C191.902 135.009 192.089 134.257 192.462 133.607C192.846 132.945 193.369 132.428 194.03 132.055C194.702 131.681 195.465 131.495 196.318 131.495C197.15 131.495 197.892 131.676 198.542 132.039C199.193 132.401 199.705 132.913 200.078 133.575C200.452 134.236 200.638 135.015 200.638 135.911C200.638 135.996 200.633 136.092 200.622 136.199C200.622 136.305 200.617 136.407 200.606 136.503H193.486V135.175H199.55L198.766 135.591C198.777 135.1 198.676 134.668 198.462 134.295C198.249 133.921 197.956 133.628 197.582 133.415C197.22 133.201 196.798 133.095 196.318 133.095C195.828 133.095 195.396 133.201 195.022 133.415C194.66 133.628 194.372 133.927 194.158 134.311C193.956 134.684 193.854 135.127 193.854 135.639V135.959C193.854 136.471 193.972 136.924 194.206 137.319C194.441 137.713 194.772 138.017 195.198 138.231C195.625 138.444 196.116 138.551 196.67 138.551C197.15 138.551 197.582 138.476 197.966 138.327C198.35 138.177 198.692 137.943 198.99 137.623L200.062 138.855C199.678 139.303 199.193 139.649 198.606 139.895C198.03 140.129 197.369 140.247 196.622 140.247ZM202.826 140.135V131.591H204.922L208.362 137.655H207.53L211.146 131.591H213.018L213.034 140.135H211.226V133.735L211.546 133.943L208.346 139.239H207.482L204.266 133.799L204.65 133.703V140.135H202.826ZM219.524 140.247C218.65 140.247 217.871 140.06 217.188 139.687C216.506 139.303 215.967 138.78 215.572 138.119C215.178 137.457 214.98 136.705 214.98 135.863C214.98 135.009 215.178 134.257 215.572 133.607C215.967 132.945 216.506 132.428 217.188 132.055C217.871 131.681 218.65 131.495 219.524 131.495C220.41 131.495 221.194 131.681 221.876 132.055C222.57 132.428 223.108 132.94 223.492 133.591C223.887 134.241 224.084 134.999 224.084 135.863C224.084 136.705 223.887 137.457 223.492 138.119C223.108 138.78 222.57 139.303 221.876 139.687C221.194 140.06 220.41 140.247 219.524 140.247ZM219.524 138.535C220.015 138.535 220.452 138.428 220.836 138.215C221.22 138.001 221.519 137.692 221.732 137.287C221.956 136.881 222.068 136.407 222.068 135.863C222.068 135.308 221.956 134.833 221.732 134.439C221.519 134.033 221.22 133.724 220.836 133.511C220.452 133.297 220.02 133.191 219.54 133.191C219.05 133.191 218.612 133.297 218.228 133.511C217.855 133.724 217.556 134.033 217.332 134.439C217.108 134.833 216.996 135.308 216.996 135.863C216.996 136.407 217.108 136.881 217.332 137.287C217.556 137.692 217.855 138.001 218.228 138.215C218.612 138.428 219.044 138.535 219.524 138.535ZM230.044 140.247C229.095 140.247 228.263 140.06 227.548 139.687C226.844 139.303 226.295 138.78 225.9 138.119C225.516 137.457 225.324 136.705 225.324 135.863C225.324 135.009 225.511 134.257 225.884 133.607C226.268 132.945 226.791 132.428 227.452 132.055C228.124 131.681 228.887 131.495 229.74 131.495C230.572 131.495 231.314 131.676 231.964 132.039C232.615 132.401 233.127 132.913 233.5 133.575C233.874 134.236 234.06 135.015 234.06 135.911C234.06 135.996 234.055 136.092 234.044 136.199C234.044 136.305 234.039 136.407 234.028 136.503H226.908V135.175H232.972L232.188 135.591C232.199 135.1 232.098 134.668 231.884 134.295C231.671 133.921 231.378 133.628 231.004 133.415C230.642 133.201 230.22 133.095 229.74 133.095C229.25 133.095 228.818 133.201 228.444 133.415C228.082 133.628 227.794 133.927 227.58 134.311C227.378 134.684 227.276 135.127 227.276 135.639V135.959C227.276 136.471 227.394 136.924 227.628 137.319C227.863 137.713 228.194 138.017 228.62 138.231C229.047 138.444 229.538 138.551 230.092 138.551C230.572 138.551 231.004 138.476 231.388 138.327C231.772 138.177 232.114 137.943 232.412 137.623L233.484 138.855C233.1 139.303 232.615 139.649 232.028 139.895C231.452 140.129 230.791 140.247 230.044 140.247ZM99.2806 160.135L103.041 155.239L103.009 156.311L99.4246 151.591H101.649L104.161 154.951H103.313L105.841 151.591H108.001L104.385 156.311L104.401 155.239L108.145 160.135H105.889L103.249 156.567L104.081 156.679L101.489 160.135H99.2806ZM113.103 160.247C112.228 160.247 111.449 160.06 110.767 159.687C110.084 159.303 109.545 158.78 109.151 158.119C108.756 157.457 108.559 156.705 108.559 155.863C108.559 155.009 108.756 154.257 109.151 153.607C109.545 152.945 110.084 152.428 110.767 152.055C111.449 151.681 112.228 151.495 113.103 151.495C113.988 151.495 114.772 151.681 115.455 152.055C116.148 152.428 116.687 152.94 117.071 153.591C117.465 154.241 117.663 154.999 117.663 155.863C117.663 156.705 117.465 157.457 117.071 158.119C116.687 158.78 116.148 159.303 115.455 159.687C114.772 160.06 113.988 160.247 113.103 160.247ZM113.103 158.535C113.593 158.535 114.031 158.428 114.415 158.215C114.799 158.001 115.097 157.692 115.311 157.287C115.535 156.881 115.647 156.407 115.647 155.863C115.647 155.308 115.535 154.833 115.311 154.439C115.097 154.033 114.799 153.724 114.415 153.511C114.031 153.297 113.599 153.191 113.119 153.191C112.628 153.191 112.191 153.297 111.807 153.511C111.433 153.724 111.135 154.033 110.911 154.439C110.687 154.833 110.575 155.308 110.575 155.863C110.575 156.407 110.687 156.881 110.911 157.287C111.135 157.692 111.433 158.001 111.807 158.215C112.191 158.428 112.623 158.535 113.103 158.535ZM123.718 160.295C123.014 160.295 122.385 160.188 121.83 159.975C121.276 159.761 120.796 159.436 120.39 158.999C119.996 158.551 119.692 157.985 119.478 157.303C119.265 156.62 119.158 155.809 119.158 154.871C119.158 154.188 119.217 153.564 119.334 152.999C119.452 152.433 119.628 151.927 119.862 151.479C120.097 151.02 120.39 150.615 120.742 150.263C121.105 149.911 121.526 149.617 122.006 149.383C122.486 149.148 123.03 148.967 123.638 148.839L127.606 147.991L127.894 149.783L124.294 150.519C124.092 150.561 123.846 150.625 123.558 150.711C123.281 150.785 122.993 150.903 122.694 151.063C122.406 151.212 122.134 151.431 121.878 151.719C121.633 151.996 121.43 152.359 121.27 152.807C121.121 153.244 121.046 153.793 121.046 154.455C121.046 154.657 121.052 154.812 121.062 154.919C121.084 155.015 121.1 155.121 121.11 155.239C121.132 155.345 121.142 155.505 121.142 155.719L120.39 154.935C120.604 154.391 120.897 153.927 121.27 153.543C121.654 153.148 122.097 152.849 122.598 152.647C123.11 152.433 123.665 152.327 124.262 152.327C125.062 152.327 125.772 152.492 126.39 152.823C127.009 153.153 127.494 153.617 127.846 154.215C128.198 154.812 128.374 155.489 128.374 156.247C128.374 157.036 128.182 157.735 127.798 158.343C127.414 158.951 126.87 159.431 126.166 159.783C125.473 160.124 124.657 160.295 123.718 160.295ZM123.878 158.679C124.358 158.679 124.78 158.577 125.142 158.375C125.516 158.161 125.804 157.873 126.006 157.511C126.22 157.148 126.326 156.743 126.326 156.295C126.326 155.847 126.22 155.457 126.006 155.127C125.804 154.785 125.516 154.513 125.142 154.311C124.78 154.108 124.348 154.007 123.846 154.007C123.366 154.007 122.934 154.103 122.55 154.295C122.177 154.487 121.884 154.753 121.67 155.095C121.468 155.425 121.366 155.809 121.366 156.247C121.366 156.695 121.473 157.105 121.686 157.479C121.9 157.852 122.193 158.145 122.566 158.359C122.95 158.572 123.388 158.679 123.878 158.679ZM134.39 160.295C133.686 160.295 133.057 160.188 132.502 159.975C131.948 159.761 131.468 159.436 131.062 158.999C130.668 158.551 130.364 157.985 130.15 157.303C129.937 156.62 129.83 155.809 129.83 154.871C129.83 154.188 129.889 153.564 130.006 152.999C130.124 152.433 130.3 151.927 130.534 151.479C130.769 151.02 131.062 150.615 131.414 150.263C131.777 149.911 132.198 149.617 132.678 149.383C133.158 149.148 133.702 148.967 134.31 148.839L138.278 147.991L138.566 149.783L134.966 150.519C134.764 150.561 134.518 150.625 134.23 150.711C133.953 150.785 133.665 150.903 133.366 151.063C133.078 151.212 132.806 151.431 132.55 151.719C132.305 151.996 132.102 152.359 131.942 152.807C131.793 153.244 131.718 153.793 131.718 154.455C131.718 154.657 131.724 154.812 131.734 154.919C131.756 155.015 131.772 155.121 131.782 155.239C131.804 155.345 131.814 155.505 131.814 155.719L131.062 154.935C131.276 154.391 131.569 153.927 131.942 153.543C132.326 153.148 132.769 152.849 133.27 152.647C133.782 152.433 134.337 152.327 134.934 152.327C135.734 152.327 136.444 152.492 137.062 152.823C137.681 153.153 138.166 153.617 138.518 154.215C138.87 154.812 139.046 155.489 139.046 156.247C139.046 157.036 138.854 157.735 138.47 158.343C138.086 158.951 137.542 159.431 136.838 159.783C136.145 160.124 135.329 160.295 134.39 160.295ZM134.55 158.679C135.03 158.679 135.452 158.577 135.814 158.375C136.188 158.161 136.476 157.873 136.678 157.511C136.892 157.148 136.998 156.743 136.998 156.295C136.998 155.847 136.892 155.457 136.678 155.127C136.476 154.785 136.188 154.513 135.814 154.311C135.452 154.108 135.02 154.007 134.518 154.007C134.038 154.007 133.606 154.103 133.222 154.295C132.849 154.487 132.556 154.753 132.342 155.095C132.14 155.425 132.038 155.809 132.038 156.247C132.038 156.695 132.145 157.105 132.358 157.479C132.572 157.852 132.865 158.145 133.238 158.359C133.622 158.572 134.06 158.679 134.55 158.679ZM140.982 160.135V151.591H142.982V157.223L147.702 151.591H149.526V160.135H147.526V154.503L142.822 160.135H140.982Z" fill="black"/>
<path d="M87.9209 189.183C87.1209 189.183 86.3795 189.039 85.6969 188.751C85.0142 188.463 84.4169 188.063 83.9049 187.551C83.3929 187.028 82.9929 186.425 82.7049 185.743C82.4275 185.06 82.2889 184.324 82.2889 183.535C82.2889 182.745 82.4329 182.009 82.7209 181.327C83.0089 180.644 83.4089 180.047 83.9209 179.535C84.4329 179.012 85.0302 178.607 85.7129 178.319C86.4062 178.031 87.1529 177.887 87.9529 177.887C88.7529 177.887 89.4942 178.031 90.1769 178.319C90.8702 178.596 91.4675 178.991 91.9689 179.503C92.4809 180.015 92.8755 180.612 93.1529 181.295C93.4409 181.967 93.5849 182.703 93.5849 183.503C93.5849 184.303 93.4409 185.049 93.1529 185.743C92.8649 186.425 92.4595 187.028 91.9369 187.551C91.4249 188.063 90.8275 188.463 90.1449 188.751C89.4622 189.039 88.7209 189.183 87.9209 189.183ZM87.9209 188.463C88.6142 188.463 89.2595 188.335 89.8569 188.079C90.4542 187.823 90.9769 187.471 91.4249 187.023C91.8729 186.575 92.2195 186.052 92.4649 185.455C92.7102 184.847 92.8329 184.196 92.8329 183.503C92.8329 182.809 92.7102 182.164 92.4649 181.567C92.2195 180.969 91.8782 180.452 91.4409 180.015C91.0035 179.577 90.4862 179.236 89.8889 178.991C89.3022 178.735 88.6569 178.607 87.9529 178.607C87.2489 178.607 86.5929 178.735 85.9849 178.991C85.3875 179.236 84.8702 179.588 84.4329 180.047C83.9955 180.495 83.6542 181.017 83.4089 181.615C83.1635 182.201 83.0409 182.841 83.0409 183.535C83.0409 184.228 83.1635 184.873 83.4089 185.471C83.6542 186.068 83.9955 186.591 84.4329 187.039C84.8702 187.487 85.3875 187.839 85.9849 188.095C86.5822 188.34 87.2275 188.463 87.9209 188.463ZM88.0969 186.831C87.4462 186.831 86.8649 186.692 86.3529 186.415C85.8409 186.137 85.4409 185.753 85.1529 185.263C84.8649 184.761 84.7209 184.185 84.7209 183.535C84.7209 182.884 84.8649 182.313 85.1529 181.823C85.4409 181.321 85.8409 180.932 86.3529 180.655C86.8649 180.377 87.4462 180.239 88.0969 180.239C88.6622 180.239 89.1689 180.356 89.6169 180.591C90.0755 180.815 90.4329 181.129 90.6889 181.535L89.7769 182.191C89.5742 181.892 89.3235 181.673 89.0249 181.535C88.7369 181.396 88.4222 181.327 88.0809 181.327C87.6649 181.327 87.2969 181.423 86.9769 181.615C86.6675 181.796 86.4169 182.052 86.2249 182.383C86.0329 182.703 85.9369 183.087 85.9369 183.535C85.9369 183.983 86.0329 184.372 86.2249 184.703C86.4169 185.023 86.6675 185.279 86.9769 185.471C87.2969 185.652 87.6649 185.743 88.0809 185.743C88.4222 185.743 88.7369 185.673 89.0249 185.535C89.3235 185.396 89.5742 185.177 89.7769 184.879L90.6889 185.519C90.4329 185.924 90.0755 186.244 89.6169 186.479C89.1689 186.713 88.6622 186.831 88.0969 186.831ZM100.39 189.135V177.935H107.734L107.718 179.327H101.574L101.958 178.927L101.974 189.135H100.39ZM110.769 189.231C109.863 189.231 109.063 189.044 108.369 188.671C107.687 188.297 107.153 187.785 106.769 187.135C106.396 186.484 106.209 185.737 106.209 184.895C106.209 184.052 106.391 183.305 106.753 182.655C107.127 182.004 107.633 181.497 108.273 181.135C108.924 180.761 109.655 180.575 110.465 180.575C111.287 180.575 112.012 180.756 112.641 181.119C113.271 181.481 113.761 181.993 114.113 182.655C114.476 183.305 114.657 184.068 114.657 184.943C114.657 185.007 114.652 185.081 114.641 185.167C114.641 185.252 114.636 185.332 114.625 185.407H107.409V184.303H113.825L113.201 184.687C113.212 184.143 113.1 183.657 112.865 183.231C112.631 182.804 112.305 182.473 111.889 182.239C111.484 181.993 111.009 181.871 110.465 181.871C109.932 181.871 109.457 181.993 109.041 182.239C108.625 182.473 108.3 182.809 108.065 183.247C107.831 183.673 107.713 184.164 107.713 184.719V184.975C107.713 185.54 107.841 186.047 108.097 186.495C108.364 186.932 108.732 187.273 109.201 187.519C109.671 187.764 110.209 187.887 110.817 187.887C111.319 187.887 111.772 187.801 112.177 187.631C112.593 187.46 112.956 187.204 113.265 186.863L114.113 187.855C113.729 188.303 113.249 188.644 112.673 188.879C112.108 189.113 111.473 189.231 110.769 189.231ZM117.04 189.135V180.655H118.576V184.255H123.408V180.655H124.944V189.135H123.408V185.583H118.576V189.135H117.04ZM132.427 189.231C131.723 189.231 131.077 189.071 130.491 188.751C129.915 188.42 129.451 187.935 129.099 187.295C128.757 186.655 128.587 185.855 128.587 184.895C128.587 183.935 128.752 183.135 129.083 182.495C129.424 181.855 129.883 181.375 130.459 181.055C131.045 180.735 131.701 180.575 132.427 180.575C133.259 180.575 133.995 180.756 134.635 181.119C135.275 181.481 135.781 181.988 136.155 182.639C136.528 183.279 136.715 184.031 136.715 184.895C136.715 185.759 136.528 186.516 136.155 187.167C135.781 187.817 135.275 188.324 134.635 188.687C133.995 189.049 133.259 189.231 132.427 189.231ZM127.931 192.239V180.655H129.403V182.943L129.307 184.911L129.467 186.879V192.239H127.931ZM132.299 187.887C132.843 187.887 133.328 187.764 133.755 187.519C134.192 187.273 134.533 186.927 134.779 186.479C135.035 186.02 135.163 185.492 135.163 184.895C135.163 184.287 135.035 183.764 134.779 183.327C134.533 182.879 134.192 182.532 133.755 182.287C133.328 182.041 132.843 181.919 132.299 181.919C131.765 181.919 131.28 182.041 130.843 182.287C130.416 182.532 130.075 182.879 129.819 183.327C129.573 183.764 129.451 184.287 129.451 184.895C129.451 185.492 129.573 186.02 129.819 186.479C130.075 186.927 130.416 187.273 130.843 187.519C131.28 187.764 131.765 187.887 132.299 187.887ZM138.946 189.135V180.655H140.482V186.831L145.682 180.655H147.074V189.135H145.538V182.959L140.354 189.135H138.946ZM160.081 188.383C158.715 188.383 157.547 188.196 156.577 187.823C155.606 187.439 154.865 186.884 154.353 186.159C153.841 185.433 153.585 184.553 153.585 183.519C153.585 182.484 153.841 181.604 154.353 180.879C154.865 180.153 155.606 179.599 156.577 179.215C157.547 178.831 158.715 178.639 160.081 178.639C160.102 178.639 160.139 178.639 160.193 178.639C160.257 178.639 160.315 178.639 160.369 178.639C160.433 178.639 160.47 178.639 160.481 178.639C161.846 178.639 163.009 178.831 163.969 179.215C164.939 179.599 165.681 180.153 166.193 180.879C166.705 181.604 166.961 182.484 166.961 183.519C166.961 184.543 166.705 185.423 166.193 186.159C165.691 186.884 164.961 187.439 164.001 187.823C163.051 188.196 161.899 188.383 160.545 188.383C160.523 188.383 160.475 188.383 160.401 188.383C160.337 188.383 160.273 188.383 160.209 188.383C160.145 188.383 160.102 188.383 160.081 188.383ZM160.257 187.135C160.278 187.135 160.305 187.135 160.337 187.135C160.369 187.135 160.385 187.135 160.385 187.135C161.473 187.124 162.39 186.985 163.137 186.719C163.883 186.441 164.449 186.036 164.833 185.503C165.227 184.959 165.425 184.292 165.425 183.503C165.425 182.724 165.227 182.068 164.833 181.535C164.438 181.001 163.867 180.596 163.121 180.319C162.385 180.041 161.483 179.903 160.417 179.903C160.406 179.903 160.379 179.903 160.337 179.903C160.305 179.903 160.278 179.903 160.257 179.903C159.158 179.903 158.225 180.041 157.457 180.319C156.699 180.585 156.123 180.985 155.729 181.519C155.334 182.052 155.137 182.719 155.137 183.519C155.137 184.319 155.339 184.985 155.745 185.519C156.15 186.052 156.731 186.457 157.489 186.735C158.257 187.001 159.179 187.135 160.257 187.135ZM159.537 189.551V177.519H161.025V189.551H159.537ZM172.797 189.231C171.944 189.231 171.186 189.044 170.525 188.671C169.864 188.297 169.341 187.785 168.957 187.135C168.573 186.473 168.381 185.727 168.381 184.895C168.381 184.052 168.573 183.305 168.957 182.655C169.341 182.004 169.864 181.497 170.525 181.135C171.186 180.761 171.944 180.575 172.797 180.575C173.64 180.575 174.392 180.761 175.053 181.135C175.725 181.497 176.248 182.004 176.621 182.655C177.005 183.295 177.197 184.041 177.197 184.895C177.197 185.737 177.005 186.484 176.621 187.135C176.248 187.785 175.725 188.297 175.053 188.671C174.392 189.044 173.64 189.231 172.797 189.231ZM172.797 187.887C173.341 187.887 173.826 187.764 174.253 187.519C174.69 187.273 175.032 186.927 175.277 186.479C175.522 186.02 175.645 185.492 175.645 184.895C175.645 184.287 175.522 183.764 175.277 183.327C175.032 182.879 174.69 182.532 174.253 182.287C173.826 182.041 173.341 181.919 172.797 181.919C172.253 181.919 171.768 182.041 171.341 182.287C170.914 182.532 170.573 182.879 170.317 183.327C170.061 183.764 169.933 184.287 169.933 184.895C169.933 185.492 170.061 186.02 170.317 186.479C170.573 186.927 170.914 187.273 171.341 187.519C171.768 187.764 172.253 187.887 172.797 187.887ZM183.911 189.231C183.207 189.231 182.562 189.071 181.975 188.751C181.399 188.42 180.935 187.935 180.583 187.295C180.242 186.655 180.071 185.855 180.071 184.895C180.071 183.935 180.236 183.135 180.567 182.495C180.908 181.855 181.367 181.375 181.943 181.055C182.53 180.735 183.186 180.575 183.911 180.575C184.743 180.575 185.479 180.756 186.119 181.119C186.759 181.481 187.266 181.988 187.639 182.639C188.012 183.279 188.199 184.031 188.199 184.895C188.199 185.759 188.012 186.516 187.639 187.167C187.266 187.817 186.759 188.324 186.119 188.687C185.479 189.049 184.743 189.231 183.911 189.231ZM179.415 192.239V180.655H180.887V182.943L180.791 184.911L180.951 186.879V192.239H179.415ZM183.783 187.887C184.327 187.887 184.812 187.764 185.239 187.519C185.676 187.273 186.018 186.927 186.263 186.479C186.519 186.02 186.647 185.492 186.647 184.895C186.647 184.287 186.519 183.764 186.263 183.327C186.018 182.879 185.676 182.532 185.239 182.287C184.812 182.041 184.327 181.919 183.783 181.919C183.25 181.919 182.764 182.041 182.327 182.287C181.9 182.532 181.559 182.879 181.303 183.327C181.058 183.764 180.935 184.287 180.935 184.895C180.935 185.492 181.058 186.02 181.303 186.479C181.559 186.927 181.9 187.273 182.327 187.519C182.764 187.764 183.25 187.887 183.783 187.887ZM196.16 188.415V181.999H192.48L192.4 183.631C192.379 184.164 192.342 184.681 192.288 185.183C192.246 185.673 192.171 186.127 192.064 186.543C191.968 186.959 191.824 187.3 191.632 187.567C191.44 187.833 191.184 187.999 190.864 188.063L189.344 187.791C189.675 187.801 189.942 187.695 190.144 187.471C190.347 187.236 190.502 186.916 190.608 186.511C190.726 186.105 190.811 185.647 190.864 185.135C190.918 184.612 190.96 184.073 190.992 183.519L191.12 180.655H197.696V188.415H196.16ZM189.008 191.103V187.791H198.992V191.103H197.552V189.135H190.464V191.103H189.008Z" fill="#141414"/>
<defs>
<filter id="filter0_f_132_76" x="11.0449" y="29.5012" width="262.604" height="228.521" filterUnits="userSpaceOnUse" color-interpolation-filters="sRGB">
<feFlood flood-opacity="0" result="BackgroundImageFix"/>
<feBlend mode="normal" in="SourceGraphic" in2="BackgroundImageFix" result="shape"/>
<feGaussianBlur stdDeviation="0.6" result="effect1_foregroundBlur_132_76"/>
</filter>
<filter id="filter1_d_132_76" x="0" y="10.2444" width="117.873" height="88.2073" filterUnits="userSpaceOnUse" color-interpolation-filters="sRGB">
<feFlood flood-opacity="0" result="BackgroundImageFix"/>
<feColorMatrix in="SourceAlpha" type="matrix" values="0 0 0 0 0 0 0 0 0 0 0 0 0 0 0 0 0 0 127 0" result="hardAlpha"/>
<feMorphology radius="3" operator="dilate" in="SourceAlpha" result="effect1_dropShadow_132_76"/>
<feOffset dx="5" dy="4"/>
<feGaussianBlur stdDeviation="0.6"/>
<feComposite in2="hardAlpha" operator="out"/>
<feColorMatrix type="matrix" values="0 0 0 0 0 0 0 0 0 0 0 0 0 0 0 0 0 0 0.14 0"/>
<feBlend mode="normal" in2="BackgroundImageFix" result="effect1_dropShadow_132_76"/>
<feBlend mode="normal" in="SourceGraphic" in2="effect1_dropShadow_132_76" result="shape"/>
</filter>
<filter id="filter2_d_132_76" x="171.219" y="213.791" width="117.873" height="88.2073" filterUnits="userSpaceOnUse" color-interpolation-filters="sRGB">
<feFlood flood-opacity="0" result="BackgroundImageFix"/>
<feColorMatrix in="SourceAlpha" type="matrix" values="0 0 0 0 0 0 0 0 0 0 0 0 0 0 0 0 0 0 127 0" result="hardAlpha"/>
<feMorphology radius="3" operator="dilate" in="SourceAlpha" result="effect1_dropShadow_132_76"/>
<feOffset dx="-5" dy="-4"/>
<feGaussianBlur stdDeviation="0.6"/>
<feComposite in2="hardAlpha" operator="out"/>
<feColorMatrix type="matrix" values="0 0 0 0 0 0 0 0 0 0 0 0 0 0 0 0 0 0 0.14 0"/>
<feBlend mode="normal" in2="BackgroundImageFix" result="effect1_dropShadow_132_76"/>
<feBlend mode="normal" in="SourceGraphic" in2="effect1_dropShadow_132_76" result="shape"/>
</filter>
</defs>
</svg>
